<?xml version="1.0" encoding="utf-8"?>
<!-- Generator: Adobe Illustrator 25.2.0, SVG Export Plug-In . SVG Version: 6.00 Build 0)  -->
<svg version="1.1" id="Layer_1" xmlns="http://www.w3.org/2000/svg" xmlns:xlink="http://www.w3.org/1999/xlink" x="0px" y="0px"
	 viewBox="0 0 47.2 51" style="enable-background:new 0 0 47.2 51;" xml:space="preserve">
<style type="text/css">
	.st0{fill-rule:evenodd;clip-rule:evenodd;fill:#6988FF;stroke:#6988FF;stroke-width:0.7211;stroke-linejoin:round;}
	.st1{fill:#FFFFFF;}
</style>
<g>
	<g>
		<path class="st0" d="M23.6,5.5c11.1,0,20,9,20,20s-9,20-20,20s-20-9-20-20S12.6,5.5,23.6,5.5z"/>
		<path class="st1" d="M31.5,18.3c0.9-0.9,2.3-0.9,3.1,0c0.9,0.9,0.9,2.3,0,3.1L23.5,32.7c-0.9,0.9-2.3,0.9-3.1,0l-7.2-7.2
			c-0.9-0.9-0.9-2.3,0-3.1c0.9-0.9,2.3-0.9,3.1,0l5.6,5.6L31.5,18.3z"/>
	</g>
</g>
</svg>
