<?xml version="1.0" encoding="UTF-8"?>
<svg xmlns="http://www.w3.org/2000/svg" xmlns:xlink="http://www.w3.org/1999/xlink" version="1.1" viewBox="0 0 517 517">
  <!-- Generator: Adobe Illustrator 29.1.0, SVG Export Plug-In . SVG Version: 2.1.0 Build 142)  -->
  <defs>
    <style>
      .st0 {
        fill: #fc6e42;
      }

      .st1 {
        filter: url(#drop-shadow-1);
      }

      .st2 {
        filter: url(#drop-shadow-2);
      }

      .st3 {
        fill: #173953;
      }

      .st4 {
        fill: #354ad9;
      }

      .st5 {
        fill: #d7206d;
      }

      .st6, .st7, .st8 {
        stroke-width: 1.5px;
      }

      .st6, .st7, .st8, .st9 {
        fill: none;
      }

      .st6, .st7, .st9 {
        stroke-linecap: round;
      }

      .st6, .st8 {
        stroke: #ddd;
      }

      .st10 {
        fill: #ff267a;
      }

      .st11 {
        font-family: Roboto-Bold, Roboto;
        font-size: 32px;
        font-weight: 700;
      }

      .st11, .st12, .st13, .st14 {
        fill: #fff;
      }

      .st15 {
        fill: #253f9e;
      }

      .st16 {
        fill: #a94c67;
      }

      .st17 {
        fill: #d8d8d8;
      }

      .st18 {
        fill: #fc6880;
      }

      .st19 {
        fill: #2a748b;
      }

      .st20 {
        fill: #3263fd;
      }

      .st12, .st21 {
        display: none;
      }

      .st22, .st23 {
        fill: #ddd;
      }

      .st24 {
        fill: #2b5b74;
      }

      .st25 {
        fill: #4386a4;
      }

      .st26 {
        fill: #6988ff;
      }

      .st27 {
        fill: #5b93fc;
      }

      .st28 {
        fill: #ffa190;
      }

      .st29 {
        fill: #2b46bb;
        stroke: #253f9e;
        stroke-width: 3px;
      }

      .st29, .st14 {
        stroke-miterlimit: 10;
      }

      .st30 {
        fill: #6987ff;
      }

      .st31 {
        fill: #bbb;
      }

      .st14 {
        opacity: 1;
        stroke: #dd407d;
        stroke-width: 2px;
      }

      .st32 {
        opacity: .3;
      }

      .st7, .st9 {
        stroke: #6988ff;
      }

      .st33 {
        fill: #93cbff;
      }

      .st34 {
        fill: #002029;
      }

      .st23 {
        fill-rule: evenodd;
      }

      .st35 {
        fill: #77add7;
      }

      .st36 {
        fill: #333334;
        font-family: Roboto-Medium, Roboto;
        font-size: 20px;
        font-weight: 500;
      }

      .st37 {
        fill: #2247c1;
      }

      .st38 {
        fill: #0b1e54;
      }
    </style>
    <filter id="drop-shadow-1" x="23.1" y="93.1" width="438" height="296" filterUnits="userSpaceOnUse">
      <feOffset dx="0" dy="10"/>
      <feGaussianBlur result="blur" stdDeviation="16"/>
      <feFlood flood-color="#3d498a" flood-opacity=".3"/>
      <feComposite in2="blur" operator="in"/>
      <feComposite in="SourceGraphic"/>
    </filter>
    <filter id="drop-shadow-2" x="311.1" y="250.1" width="183" height="206" filterUnits="userSpaceOnUse">
      <feOffset dx="0" dy="16"/>
      <feGaussianBlur result="blur1" stdDeviation="16"/>
      <feFlood flood-color="#3d498a" flood-opacity=".3"/>
      <feComposite in2="blur1" operator="in"/>
      <feComposite in="SourceGraphic"/>
    </filter>
  </defs>
  <g id="design" class="st21">
    <g>
      <rect class="st14" x="0" y="133.2" width="112.4" height="118.3" rx="8" ry="8"/>
      <text class="st36" transform="translate(28.4 233.6)"><tspan x="0" y="0">Radial</tspan></text>
      <g id="Radial">
        <g>
          <path class="st8" d="M56,199.1c13.3,0,24.2-10.8,24.2-24.2s-10.8-24.2-24.2-24.2-24.2,10.8-24.2,24.2,10.8,24.2,24.2,24.2Z"/>
          <path class="st8" d="M56,188.4c7.4,0,13.4-6,13.4-13.4s-6-13.4-13.4-13.4-13.4,6-13.4,13.4,6,13.4,13.4,13.4Z"/>
          <path class="st8" d="M56,177.6c1.5,0,2.7-1.2,2.7-2.7s-1.2-2.7-2.7-2.7-2.7,1.2-2.7,2.7,1.2,2.7,2.7,2.7Z"/>
          <path class="st9" d="M45.3,166.9l-10.7,21.5,32.2,8.1,13.4-26.9-29.5-18.8-5.4,16.1Z"/>
          <path class="st26" d="M47.1,150.8c0-2.2,1.8-4,4-4s4,1.8,4,4-1.8,4-4,4-4-1.8-4-4ZM31,187.5c0-2.2,1.8-4,4-4s4,1.8,4,4-1.8,4-4,4-4-1.8-4-4ZM62.6,196.4c0-2.2,1.8-4,4-4s4,1.8,4,4-1.8,4-4,4-4-1.8-4-4ZM76.2,169.6c0-2.2,1.8-4,4-4s4,1.8,4,4-1.8,4-4,4-4-1.8-4-4ZM40.4,168c0-2.2,1.8-4,4-4s4,1.8,4,4-1.8,4-4,4-4-1.8-4-4Z"/>
        </g>
      </g>
    </g>
    <g>
      <rect class="st14" x="360.6" y="265.8" width="112.4" height="118.3" rx="8" ry="8"/>
      <text class="st36" transform="translate(401.5 366.2)"><tspan x="0" y="0">Bar</tspan></text>
      <g id="Bar">
        <g>
          <path class="st26" d="M441.8,327.2c0,1.5-1.2,2.6-2.6,2.6h-42.1c-1.4,0-2.6-1.2-2.6-2.6v-7.9c0-1.5,1.2-2.6,2.6-2.6h42.1c1.4,0,2.6,1.2,2.6,2.6v7.9Z"/>
          <path class="st22" d="M434,310.1c0,1.5-1.2,2.6-2.6,2.6h-34.2c-1.5,0-2.6-1.2-2.6-2.6v-7.9c0-1.5,1.2-2.6,2.6-2.6h34.2c1.5,0,2.6,1.2,2.6,2.6v7.9Z"/>
          <path class="st31" d="M426.1,293c0,1.5-1.2,2.6-2.6,2.6h-26.3c-1.5,0-2.6-1.2-2.6-2.6v-7.9c0-1.5,1.2-2.6,2.6-2.6h26.3c1.5,0,2.6,1.2,2.6,2.6v7.9Z"/>
        </g>
      </g>
    </g>
    <g>
      <rect class="st14" x="404.6" y="0" width="112.4" height="118.3" rx="8" ry="8"/>
      <text class="st36" transform="translate(422.9 100.4)"><tspan x="0" y="0">Dougnut</tspan></text>
      <g id="Dougnut">
        <g>
          <path class="st26" d="M471,52.2c-2.7,2.9-6.5,4.8-10.7,4.8-8,0-14.6-6.6-14.6-14.8s6.5-14.8,14.6-14.8,5.3.8,7.4,2.1l5.5-7.7c-3.8-2.5-8.3-3.9-13.1-3.9-13.3,0-24.1,10.9-24.1,24.4s10.8,24.4,24.1,24.4,13.5-3.1,17.9-8.1l-7-6.6h0Z"/>
          <path class="st31" d="M471.3,28.8c1.8,1.5,3.3,3.4,4.4,5.5l10.5-3.7c-1.9-4.3-4.8-8-8.4-10.9l-6.4,9Z"/>
          <path class="st22" d="M476.5,36.8c.5,1.6.8,3.3.8,5.1,0,3.7-1.1,7-3.1,9.8l8.5,7.9c3.6-4.8,5.7-10.8,5.7-17.3s-.5-6.3-1.5-9.2l-10.4,3.6h0Z"/>
        </g>
      </g>
    </g>
    <g>
      <rect class="st14" x="46.1" y="265.8" width="169.1" height="118.3" rx="8" ry="8"/>
      <text class="st36" transform="translate(76.4 366.2)"><tspan x="0" y="0">Stacked Bar</tspan></text>
      <g id="Stacked_Bar">
        <g>
          <path class="st26" d="M154.7,327.7c0,1.5-1.2,2.6-2.6,2.6h-42.1c-1.4,0-2.6-1.2-2.6-2.6v-7.9c0-1.5,1.2-2.6,2.6-2.6h42.1c1.4,0,2.6,1.2,2.6,2.6v7.9Z"/>
          <path class="st22" d="M138.9,317.2v13.1h-13.1v-13.1h13.1Z"/>
          <path class="st31" d="M125.7,317.2v13.1h-15.8c-1.5,0-2.6-1.2-2.6-2.6v-7.9c0-1.5,1.2-2.6,2.6-2.6h15.8Z"/>
          <path class="st26" d="M146.8,310.6c0,1.5-1.2,2.6-2.7,2.6h-34.1c-1.5,0-2.6-1.2-2.6-2.6v-7.9c0-1.5,1.2-2.6,2.6-2.6h34.2c1.5,0,2.7,1.2,2.7,2.6v7.9h0Z"/>
          <path class="st22" d="M133.6,300.1v13.1h-13.1v-13.1h13.1Z"/>
          <path class="st31" d="M120.5,300.1v13.1h-10.5c-1.5,0-2.6-1.2-2.6-2.6v-7.9c0-1.5,1.2-2.6,2.6-2.6h10.5Z"/>
          <path class="st26" d="M138.9,293.5c0,1.5-1.2,2.6-2.6,2.6h-26.3c-1.5,0-2.6-1.2-2.6-2.6v-7.9c0-1.5,1.2-2.6,2.6-2.6h26.3c1.5,0,2.6,1.2,2.6,2.6v7.9h0Z"/>
          <path class="st22" d="M128.4,283v13.1h-10.5v-13.1h10.5Z"/>
          <path class="st31" d="M117.8,283v13.1h-7.9c-1.5,0-2.6-1.2-2.6-2.6v-7.9c0-1.5,1.2-2.6,2.6-2.6h7.9Z"/>
        </g>
      </g>
    </g>
    <g>
      <rect class="st14" x="231" y="265.8" width="112.4" height="118.3" rx="8" ry="8"/>
      <text class="st36" transform="translate(247.1 366.2)"><tspan x="0" y="0">Treemap</tspan></text>
      <g id="Treemap">
        <g>
          <path class="st22" d="M310.9,327.2c0,1.5-1.2,2.6-2.6,2.6h-21v-23.7h23.7v21Z"/>
          <path class="st31" d="M310.9,285.2v21h-23.7v-23.7h21c1.5,0,2.6,1.2,2.6,2.6Z"/>
          <path class="st26" d="M266.2,282.6h21v47.3h-21c-1.5,0-2.6-1.2-2.6-2.6v-42c0-1.5,1.2-2.6,2.6-2.6Z"/>
        </g>
      </g>
    </g>
    <g>
      <rect class="st14" x="129.9" y="132.9" width="112.4" height="118.3" rx="8" ry="8"/>
      <text class="st36" transform="translate(171.8 233.3)"><tspan x="0" y="0">Pie</tspan></text>
      <g id="Pie">
        <g>
          <path class="st22" d="M207.5,187.6c3.4-4.1,5.4-9.4,5.4-15.1s-.6-6.1-1.7-8.8l-22.1,8.8,18.3,15.1h0Z"/>
          <path class="st31" d="M210.7,161.2c-1.9-4.6-5.1-8.6-9.3-11.3l-13,20.2,22.3-8.9h0Z"/>
          <path class="st26" d="M184.5,171.8l13-20.2c-3.8-2.4-8.2-3.8-13-3.8-13.3,0-24,10.8-24,24s10.8,24,24,24,14.1-3.4,18.6-8.8l-18.6-15.3Z"/>
        </g>
      </g>
    </g>
    <g>
      <rect class="st14" x="347.9" y="133.2" width="169.1" height="118.3" rx="8" ry="8"/>
      <text class="st36" transform="translate(379.2 233.6)"><tspan x="0" y="0">Spline Area</tspan></text>
      <g id="Spline_Area">
        <g>
          <path class="st22" d="M408.2,180.9c0-10.5,4-15.7,12.1-15.7,12.1,0,9.1,20.2,21.2,20.2s13.1-9.7,15.1-29.1v40.3h-48.4v-15.7Z"/>
          <path class="st7" d="M408.2,181.3c0-10.6,4-15.9,12.1-15.9,12.1,0,9.1,20.5,21.2,20.5s13.1-9.9,15.1-29.6"/>
          <path class="st26" d="M451.9,158.5c0-2.2,1.8-4,4-4s4,1.8,4,4-1.8,4-4,4-4-1.8-4-4ZM438.5,185.9c0-2.2,1.8-4,4-4s4,1.8,4,4-1.8,4-4,4-4-1.8-4-4ZM414.7,165.7c0-2.2,1.8-4,4-4s4,1.8,4,4-1.8,4-4,4-4-1.8-4-4ZM404.2,180.5c0-2.2,1.8-4,4-4s4,1.8,4,4-1.8,4-4,4-4-1.8-4-4Z"/>
        </g>
      </g>
    </g>
    <g>
      <g>
        <rect class="st14" x="0" y="398.7" width="112.4" height="118.3" rx="8" ry="8"/>
        <text class="st36" transform="translate(24 499.1)"><tspan x="0" y="0">Combo</tspan></text>
        <g id="Combo">
          <path class="st26" d="M61.6,415.4c1.5,0,2.6,1.2,2.6,2.6v42.1c0,1.4-1.2,2.6-2.6,2.6h-7.9c-1.5,0-2.6-1.2-2.6-2.6v-42.1c0-1.4,1.2-2.6,2.6-2.6h7.9ZM78.6,433.8c1.5,0,2.6,1.2,2.6,2.6v23.7c0,1.4-1.2,2.6-2.6,2.6h-7.9c-1.5,0-2.6-1.2-2.6-2.6v-23.7c0-1.4,1.2-2.6,2.6-2.6h7.9ZM44.5,423.3c1.5,0,2.6,1.2,2.6,2.6v34.1c0,1.5-1.2,2.6-2.6,2.6h-7.9c-1.5,0-2.6-1.2-2.6-2.6v-34.1c0-1.5,1.2-2.6,2.6-2.6h7.9Z"/>
          <path class="st6" d="M40.5,444.3l17.1-10.5,17.1,21h0"/>
          <path class="st22" d="M53.7,434.3c0-2.2,1.8-3.9,3.9-3.9s3.9,1.8,3.9,3.9-1.8,3.9-3.9,3.9-3.9-1.8-3.9-3.9ZM36.6,444.3c0-2.2,1.8-3.9,3.9-3.9s3.9,1.8,3.9,3.9-1.8,3.9-3.9,3.9-3.9-1.8-3.9-3.9ZM70.8,454.8c0-2.2,1.8-3.9,3.9-3.9s3.9,1.8,3.9,3.9-1.8,3.9-3.9,3.9-3.9-1.8-3.9-3.9Z"/>
        </g>
      </g>
      <g>
        <rect class="st14" x="257.8" y="398.7" width="141" height="118.3" rx="8" ry="8"/>
        <text class="st36" transform="translate(284.8 499.1)"><tspan x="0" y="0">Step Area</tspan></text>
        <g id="Step_Area">
          <g>
            <path class="st17" d="M302.6,449.6h15.8v-34.2h15.8v18.4h15.8v28.9h-47.3v-13.1Z"/>
            <path class="st7" d="M302.6,449.6h15.8v-34.2h15.8v18.4h15.8"/>
          </g>
        </g>
      </g>
      <g>
        <rect class="st14" x="128.6" y="398.7" width="112.4" height="118.3" rx="8" ry="8"/>
        <text class="st36" transform="translate(153.8 499.1)"><tspan x="0" y="0">Bubble</tspan></text>
        <g id="Bubble">
          <path class="st26" d="M177.4,450.7c0,4.1-3.3,7.4-7.3,7.4s-7.3-3.3-7.3-7.4,3.3-7.4,7.3-7.4,7.3,3.3,7.3,7.4ZM178.5,432.7c0,2.9-2.4,5.3-5.2,5.3s-5.2-2.4-5.2-5.3,2.4-4.9,5.2-4.9,5.2,2.1,5.2,4.9ZM188.1,453.3c0,1.3-1,2.3-2.2,2.3s-2.2-1-2.2-2.3,1-2.3,2.2-2.3,2.2,1,2.2,2.3ZM193.6,439.2c0,3.6-3,6.6-6.4,6.6s-6.1-3-6.1-6.6,2.7-6.3,6.1-6.3,6.4,2.7,6.4,6.3ZM186.2,422.6c0,1.5-1.2,2.7-2.6,2.7s-2.6-1.2-2.6-2.7,1.2-2.7,2.6-2.7,2.6,1.2,2.6,2.7ZM204.7,434.3c0,2.2-2,4-4.2,4s-3.9-1.8-3.9-4,1.7-4,3.9-4,4.2,1.8,4.2,4ZM206.8,449.9c0,3.6-2.9,6.3-6.4,6.3s-6.4-2.7-6.4-6.3,2.9-6.6,6.4-6.6,6.4,3,6.4,6.6Z"/>
        </g>
      </g>
    </g>
    <g>
      <rect class="st14" x="277.3" y="0" width="112.4" height="118.3" rx="8" ry="8"/>
      <text class="st36" transform="translate(298.9 100.4)"><tspan x="0" y="0">Column</tspan></text>
      <g id="Column">
        <g>
          <path class="st31" d="M348.1,32.5h7.9c1.5,0,2.6,1.2,2.6,2.6v26.3c0,1.4-1.2,2.6-2.6,2.6h-7.9c-1.5,0-2.6-1.2-2.6-2.6v-26.3c0-1.4,1.2-2.6,2.6-2.6Z"/>
          <path class="st22" d="M331,24.6h7.9c1.5,0,2.6,1.2,2.6,2.6v34.1c0,1.5-1.2,2.6-2.6,2.6h-7.9c-1.5,0-2.6-1.2-2.6-2.6V27.2c0-1.5,1.2-2.6,2.6-2.6Z"/>
          <path class="st26" d="M313.9,16.7h7.9c1.5,0,2.6,1.2,2.6,2.6v42.1c0,1.4-1.2,2.6-2.6,2.6h-7.9c-1.5,0-2.6-1.2-2.6-2.6V19.3c0-1.4,1.2-2.6,2.6-2.6Z"/>
        </g>
      </g>
    </g>
    <g>
      <rect class="st14" x="118.6" y="0" width="144.7" height="118.3" rx="8" ry="8"/>
      <text class="st36" transform="translate(137.2 100.4)"><tspan x="0" y="0">Scatter Map</tspan></text>
      <g id="Scatter_Map">
        <path class="st23" d="M165.2,18.1l5.9,1.7c.3,0,.6,0,.8,0l2.5-.9c.3-.1.6-.1.9,0l5.5,2c.2,0,.3,0,.5,0h4.5c.3-.1.5-.2.7-.3l.8-.5c.5-.3,1.2-.3,1.7.2l.5.5c.6.6.6,1.6-.1,2.1l-1.6,1.2c-.6.4-.7,1.2-.3,1.8l.6.9c.2.2.4.4.6.5l2.1.9c.9.4,2-.3,1.9-1.4v-1.4c-.1-.9.6-1.6,1.5-1.4l3.4.5c.4,0,.8.3,1,.7l2.5,4.3c.4.7.1,1.7-.7,2l-4.5,1.9c-.2.1-.5.3-.6.5l-1.7,2.5-1.7,2.7c-.3.5-.9.8-1.5.6l-2.2-.6c-.4-.1-.8,0-1.2.2l-.5.3c-.5.4-.7,1.1-.5,1.7l.2.5c.2.6.8.9,1.5.9h.6c.5-.1.9.2,1,.6v.5c.2.2.4.4.6.5h.1c.4,0,.8.3.9.7v.4c.1.7.8,1.1,1.4.9l2.4-.7c.6-.2,1.2-.1,1.8,0l5.8,2.3,1,1.6c.2.3.5.5.8.6l3,1c.8.3,1.3,1.2,1,2.1l-1.6,4.1c-.1.4-.4.7-.8.9l-2.6,1.4c-.2,0-.3.2-.5.4l-4.7,5.3c-.2.2-.3.6-.4.9l-.3,2.7c-.2,1.4-1.8,1.9-2.8.9-.3-.3-.4-.7-.4-1.1v-6.4c0-.1,0-.2,0-.3l1-4.8c.1-.5,0-1-.4-1.4l-2.8-3c-.4-.4-.5-1-.4-1.5l.7-2.8c.1-.5-.2-.9-.7-1h0c-.6,0-1.1-.4-1.4-.8l-.4-.6c-.3-.4-.7-.8-1.2-.9l-5.6-1.8-6.5-7.6c-.2-.2-.3-.6-.3-.9v-2.8c0-.3-.1-.6-.3-.9l-3.6-4.2c-.2-.2-.4-.3-.6-.4l-3.6-1.3c-.5-.2-1,0-1.3.2l-1.3,1c-.4.3-.9.4-1.4.2l-1.3-.6c-.7-.3-1-1.1-.8-1.7v-.2c.4-.4.3-1,0-1.4l-.9-1.4c-.4-.7-.2-1.6.6-2l2.1-1c.3-.1.7-.2,1,0ZM192.7,16.7c.1,0,.2,0,.3,0h.1c0,0,3.8,2.7,3.8,2.7,0,0,.1.1.2.2h0c0,.1,1,2.5,1,2.5.2.5-.2,1-.6,1h-.2s-2.4-.5-2.4-.5c-.5,0-.7-.6-.6-1v-.2c.3-.3.2-.7,0-1h-.2c0-.1-4.3-2.2-4.3-2.2-.1,0-.3,0-.5,0h-.2s-2.2,1-2.2,1c-.3.1-.6,0-.8-.2h-.1c0-.1-.6-1.2-.6-1.2-.3-.4,0-1,.4-1.1h.2s6.5-.2,6.5-.2ZM177,16.7c.3-.3.8-.5,1.2-.4h.2c0,0,1.7.8,1.7.8.1,0,.3,0,.4,0h.2s1.3-.2,1.3-.2c.3,0,.7,0,.9.3l.2.2h.1c.6.9.2,2-.7,2.1h-.2s-2.6,0-2.6,0c-.1,0-.2,0-.3,0h-.2c0,0-1.8-.9-1.8-.9-.7-.3-1-1.3-.4-1.9h0Z"/>
        <path class="st26" d="M203.7,55.4c1.5,0,2.7,1.2,2.7,2.7s-1.2,2.7-2.7,2.7-2.7-1.2-2.7-2.7,1.2-2.7,2.7-2.7ZM191.9,44.8c2.9,0,5.3,2.4,5.3,5.3s-2.4,5.3-5.3,5.3-5.3-2.4-5.3-5.3,2.4-5.3,5.3-5.3ZM185,32.9c.7,0,1.3.6,1.3,1.3s-.6,1.3-1.3,1.3-1.3-.6-1.3-1.3.6-1.3,1.3-1.3ZM201.1,22.9c2.9,0,5.3,2.4,5.3,5.3s-2.4,5.3-5.3,5.3-5.3-2.4-5.3-5.3,2.4-5.3,5.3-5.3ZM172.6,24.4c1.5,0,2.7,1.2,2.7,2.7s-1.2,2.7-2.7,2.7-2.7-1.2-2.7-2.7,1.2-2.7,2.7-2.7Z"/>
      </g>
    </g>
    <g>
      <g class="st1">
        <rect class="st29" x="74.3" y="133.3" width="336.7" height="196.1" rx="10" ry="10"/>
        <text class="st11" transform="translate(109.2 299.5)"><tspan x="0" y="0">Your Visualization</tspan></text>
        <g>
          <path class="st13" d="M242.6,246.7c23.2,0,42-18.8,42-42s-18.8-42-42-42-42,18.8-42,42,18.8,42,42,42Z"/>
          <path class="st12" d="M310.3,258.6h-6v-35.2h6v35.2ZM303.8,214.1c0-1,.3-1.8.9-2.5.6-.7,1.5-1,2.7-1s2.1.3,2.7,1,.9,1.5.9,2.5-.3,1.8-.9,2.4c-.6.6-1.5,1-2.7,1s-2.1-.3-2.7-1c-.6-.6-.9-1.5-.9-2.4h0Z"/>
          <path class="st15" d="M241.9,223.3c1.3,0,2.2.4,2.9,1.1.6.7,1,1.6,1,2.6s-.3,1.9-1,2.6c-.7.7-1.6,1-2.9,1s-2.2-.3-2.8-1c-.6-.7-1-1.5-1-2.6s.3-1.9,1-2.6c.6-.7,1.6-1.1,2.8-1.1ZM242.8,178.9c4.4,0,7.8,1.2,10.2,3.5,2.4,2.4,3.7,5.6,3.7,9.7s-1.9,8.1-5.6,12l-3.8,3.8c-1.7,1.9-2.5,4.6-2.5,8.1h-6.4c0-2.8.4-4.9.9-6.5.6-1.6,1.8-3.4,3.5-5.3l4.6-4.7c1.9-2.2,2.9-4.6,2.9-7.1s-.6-4.3-1.9-5.7c-1.3-1.4-3.1-2.1-5.6-2.1s-4.3.6-5.7,1.9c-1.4,1.3-2.2,2.9-2.2,5h-6.4c0-3.8,1.4-6.8,4-9.1,2.6-2.3,6.1-3.5,10.3-3.5Z"/>
        </g>
      </g>
      <g class="st2">
        <g>
          <path class="st13" d="M400.8,342v-50.5c0-3.9-3.2-7.1-7.1-7.1s-7.1,3.2-7.1,7.1v62.5l-13-13c-2.8-2.8-7.3-2.8-10.1,0-2.8,2.8-2.8,7.3,0,10.1l30.6,30.6c5.2,5.2,12.5,8.5,20.5,8.5,16,0,29-13,29-29v-29.9c0-3.9-3.2-7.1-7.1-7.1s-7.1,3.2-7.1,7.1v10.7-17.2c0-3.9-3.2-7.1-7.1-7.1s-7.1,3.2-7.1,7.1v17.2-23.8c0-3.9-3.2-7.1-7.1-7.1s-7.1,3.2-7.1,7.1v23.8Z"/>
          <path d="M414.6,391.7c-8.2,0-15.8-3.2-21.6-8.9l-30.6-30.6c-3.4-3.4-3.4-8.9,0-12.3,1.6-1.6,3.8-2.5,6.1-2.5s4.5.9,6.1,2.5l10.3,10.3v-58.7c0-4.8,3.9-8.7,8.7-8.7s8.7,3.9,8.7,8.7v20.1c1.5-1.3,3.5-2,5.6-2,4.8,0,8.6,3.8,8.7,8.6,1.5-1.3,3.5-2,5.6-2,4.8,0,8.6,3.8,8.7,8.6,1.5-1.3,3.5-2,5.6-2,4.8,0,8.7,3.9,8.7,8.7v29.9c0,16.8-13.7,30.5-30.5,30.5ZM368.5,340.4c-1.5,0-2.9.6-3.9,1.6-2.2,2.2-2.2,5.7,0,7.9l30.6,30.6c5.2,5.2,12.1,8,19.4,8,15.1,0,27.4-12.3,27.4-27.4v-29.9c0-3.1-2.5-5.6-5.6-5.6s-5.6,2.5-5.6,5.6v10.7c0,.9-.7,1.6-1.6,1.6s-1.6-.7-1.6-1.6v-17.2c0-3.1-2.5-5.6-5.6-5.6s-5.6,2.5-5.6,5.6v17.2c0,.9-.7,1.6-1.6,1.6s-1.6-.7-1.6-1.6v-23.8c0-3.1-2.5-5.6-5.6-5.6s-5.6,2.5-5.6,5.6v23.8c0,.9-.7,1.6-1.6,1.6s-1.6-.7-1.6-1.6v-50.5c0-3.1-2.5-5.6-5.6-5.6s-5.6,2.5-5.6,5.6v62.5c0,.6-.4,1.2-1,1.4-.6.2-1.3.1-1.7-.3l-13-13c-1.1-1.1-2.5-1.6-3.9-1.6Z"/>
        </g>
      </g>
    </g>
  </g>
  <g id="design_copy">
    <path class="st5" d="M357.4,256.1c-.8,0-1.6,0-2.3,0-.3,0-.6-.3-.6-.6,0-.3.3-.6.6-.6h0c1.5,0,3.1,0,4.6,0h0c.3,0,.6.3.6.6,0,.3-.3.6-.6.6-.8,0-1.6,0-2.3,0ZM350.7,256s0,0,0,0c-1.5,0-3.1-.2-4.7-.3-.3,0-.6-.3-.6-.6,0-.3.3-.6.6-.6,1.5.1,3.1.2,4.6.3.3,0,.6.3.6.6,0,.3-.3.6-.6.6ZM364.2,255.9c-.3,0-.6-.3-.6-.6,0-.3.2-.6.6-.6,1.5,0,3.1-.2,4.6-.3.3,0,.6.2.6.6,0,.3-.2.6-.6.6-1.5.1-3.1.2-4.7.3,0,0,0,0,0,0ZM341.6,255.3s0,0,0,0c-1.5-.2-3.1-.3-4.6-.5-.3,0-.6-.3-.5-.7,0-.3.3-.6.7-.5,1.5.2,3.1.4,4.6.5.3,0,.6.3.5.7,0,.3-.3.5-.6.5ZM373.2,255.3c-.3,0-.6-.2-.6-.5,0-.3.2-.6.5-.7,1.5-.2,3.1-.4,4.6-.6.3,0,.6.2.7.5,0,.3-.2.6-.5.7-1.5.2-3.1.4-4.6.6,0,0,0,0,0,0ZM332.6,254.1s0,0,0,0c-1.5-.2-3.1-.5-4.6-.8-.3,0-.5-.4-.5-.7s.4-.5.7-.5c1.5.3,3,.5,4.6.8.3,0,.6.4.5.7,0,.3-.3.5-.6.5ZM382.2,254c-.3,0-.5-.2-.6-.5,0-.3.2-.6.5-.7,1.5-.3,3-.6,4.5-.9.3,0,.6.1.7.5,0,.3-.1.6-.5.7-1.5.3-3.1.6-4.6.9,0,0,0,0-.1,0ZM323.7,252.5s0,0-.1,0c-1.5-.3-3-.7-4.5-1-.3,0-.5-.4-.4-.7,0-.3.4-.5.7-.4,1.5.4,3,.7,4.5,1,.3,0,.5.4.5.7,0,.3-.3.5-.6.5ZM391.1,252.1c-.3,0-.5-.2-.6-.5,0-.3.1-.7.4-.7,1.5-.4,3-.8,4.5-1.2.3,0,.7,0,.7.4,0,.3,0,.7-.4.7-1.5.4-3,.8-4.5,1.2,0,0,0,0-.1,0ZM314.8,250.4c0,0-.1,0-.2,0-1.5-.4-3-.8-4.5-1.2-.3,0-.5-.4-.4-.7,0-.3.4-.5.7-.4,1.5.4,3,.8,4.5,1.2.3,0,.5.4.4.7,0,.3-.3.5-.6.5ZM399.9,249.7c-.3,0-.5-.2-.6-.4-.1-.3,0-.7.4-.8,1.5-.5,2.9-1,4.4-1.5.3-.1.7,0,.8.4.1.3,0,.7-.4.8-1.4.5-2.9,1-4.4,1.5,0,0-.1,0-.2,0ZM306.1,247.9c0,0-.1,0-.2,0-1.5-.5-3-.9-4.4-1.4-.3-.1-.5-.4-.4-.8.1-.3.4-.5.8-.4,1.5.5,2.9,1,4.4,1.4.3,0,.5.4.4.8,0,.3-.3.4-.6.4ZM408.4,246.6c-.2,0-.5-.1-.6-.4-.1-.3,0-.7.3-.8,1.4-.6,2.9-1.2,4.2-1.8.3-.1.7,0,.8.3s0,.7-.3.8c-1.4.6-2.8,1.3-4.3,1.8,0,0-.2,0-.2,0ZM297.5,245c0,0-.1,0-.2,0-1.5-.5-2.9-1-4.4-1.5-.3-.1-.5-.5-.4-.8.1-.3.5-.5.8-.4,1.5.5,2.9,1,4.4,1.5.3.1.5.5.4.8,0,.2-.3.4-.6.4ZM416.7,242.8c-.2,0-.4-.1-.5-.3-.1-.3,0-.7.3-.8,1.4-.7,2.8-1.4,4.1-2.1.3-.2.7,0,.8.2.2.3,0,.7-.2.8-1.3.7-2.7,1.5-4.1,2.2,0,0-.2,0-.3,0ZM288.9,242.1c0,0-.1,0-.2,0-1.5-.5-3-1-4.4-1.4-.3-.1-.5-.4-.4-.8.1-.3.4-.5.8-.4,1.5.5,2.9,1,4.4,1.5.3.1.5.4.4.8,0,.3-.3.4-.6.4ZM280.3,239.3c0,0-.1,0-.2,0-1.5-.5-3-.9-4.4-1.4-.3,0-.5-.4-.4-.8,0-.3.4-.5.8-.4,1.5.4,3,.9,4.4,1.4.3,0,.5.4.4.8,0,.3-.3.4-.6.4ZM424.6,238.5c-.2,0-.4-.1-.5-.3-.2-.3,0-.7.2-.8,1.3-.8,2.6-1.6,3.9-2.5.3-.2.7-.1.8.2.2.3.1.7-.2.8-1.3.9-2.6,1.7-3.9,2.5,0,0-.2,0-.3,0ZM92.2,237.4s0,0,0,0c-1.6,0-3.1-.1-4.7-.3-.3,0-.6-.3-.5-.7,0-.3.3-.6.7-.5,1.5.1,3.1.2,4.6.3.3,0,.6.3.6.6,0,.3-.3.6-.6.6ZM96.7,237.4c-.3,0-.6-.3-.6-.6,0-.3.3-.6.6-.6,1.5,0,3.1-.1,4.6-.3.3,0,.6.2.7.5,0,.3-.2.6-.5.7-1.5.2-3.1.3-4.7.3,0,0,0,0,0,0ZM271.6,236.7c0,0-.1,0-.2,0-1.5-.4-3-.9-4.5-1.3-.3,0-.5-.4-.4-.7,0-.3.4-.5.7-.4,1.5.4,3,.8,4.5,1.3.3,0,.5.4.4.7,0,.3-.3.4-.6.4ZM83.2,236.6s0,0,0,0c-1.5-.2-3.1-.5-4.6-.9-.3,0-.5-.4-.5-.7,0-.3.4-.5.7-.5,1.5.3,3,.6,4.5.8.3,0,.6.4.5.7,0,.3-.3.5-.6.5ZM105.7,236.5c-.3,0-.5-.2-.6-.5,0-.3.2-.6.5-.7,1.5-.2,3-.5,4.5-.9.3,0,.6.1.7.5,0,.3-.1.6-.5.7-1.5.3-3.1.6-4.6.9,0,0,0,0,0,0ZM114.6,234.7c-.3,0-.5-.2-.6-.5,0-.3.1-.6.5-.7,1.6-.3,3.1-.7,4.5-1,.3,0,.6.1.7.5,0,.3-.1.6-.5.7-1.5.3-3,.7-4.5,1,0,0,0,0-.1,0ZM74.4,234.6c0,0-.1,0-.2,0-1.5-.4-3-.9-4.5-1.4-.3-.1-.5-.5-.4-.8.1-.3.5-.5.8-.4,1.4.5,2.9,1,4.4,1.4.3,0,.5.4.4.7,0,.3-.3.4-.6.4ZM262.8,234.3c0,0-.1,0-.2,0-1.5-.4-3-.8-4.5-1.1-.3,0-.5-.4-.4-.7,0-.3.4-.5.7-.4,1.5.4,3,.8,4.5,1.1.3,0,.5.4.4.7,0,.3-.3.5-.6.5ZM432.2,233.4c-.2,0-.4,0-.5-.2-.2-.3-.1-.6.1-.8,1.2-.9,2.5-1.9,3.7-2.8.3-.2.6-.2.8,0,.2.3.2.6,0,.8-1.2,1-2.4,1.9-3.7,2.8-.1,0-.2.1-.4.1ZM123.5,232.7c-.3,0-.5-.2-.6-.5,0-.3.1-.6.5-.7,1.5-.3,3.1-.6,4.6-.9.3,0,.6.1.7.5,0,.3-.1.6-.5.7-1.5.3-3,.6-4.5.9,0,0,0,0-.1,0ZM254,232.1s0,0-.1,0c-1.5-.4-3-.7-4.5-1-.3,0-.5-.4-.5-.7,0-.3.4-.5.7-.5,1.5.3,3,.7,4.5,1,.3,0,.5.4.5.7,0,.3-.3.5-.6.5ZM65.8,231.6c0,0-.2,0-.2,0-1.4-.6-2.9-1.2-4.3-1.9-.3-.1-.4-.5-.3-.8.1-.3.5-.4.8-.3,1.4.7,2.8,1.3,4.2,1.9.3.1.5.5.3.8,0,.2-.3.4-.6.4ZM132.4,230.9c-.3,0-.5-.2-.6-.5,0-.3.2-.6.5-.7,1.6-.3,3.1-.6,4.6-.9.3,0,.6.2.7.5,0,.3-.2.6-.5.7-1.5.3-3,.6-4.6.9,0,0,0,0-.1,0ZM245.2,230.1s0,0-.1,0c-1.5-.3-3.1-.6-4.5-.9-.3,0-.5-.4-.5-.7,0-.3.4-.5.7-.5,1.5.3,3,.6,4.6.9.3,0,.5.4.5.7,0,.3-.3.5-.6.5ZM141.3,229.3c-.3,0-.5-.2-.6-.5,0-.3.2-.6.5-.7,1.5-.3,3.1-.5,4.6-.8.3,0,.6.2.7.5,0,.3-.2.6-.5.7-1.5.2-3,.5-4.6.8,0,0,0,0-.1,0ZM236.2,228.5s0,0-.1,0c-1.5-.3-3.1-.5-4.6-.7-.3,0-.6-.4-.5-.7,0-.3.4-.6.7-.5,1.5.2,3.1.5,4.6.8.3,0,.5.4.5.7,0,.3-.3.5-.6.5ZM150.3,227.9c-.3,0-.6-.2-.6-.5,0-.3.2-.6.5-.7,1.5-.2,3.1-.4,4.6-.7.3,0,.6.2.7.5,0,.3-.2.6-.5.7-1.5.2-3.1.4-4.6.6,0,0,0,0,0,0ZM439.2,227.7c-.2,0-.3,0-.5-.2-.2-.2-.2-.6,0-.9,1.2-1,2.3-2.1,3.4-3.1.2-.2.6-.2.9,0,.2.2.2.6,0,.9-1.1,1.1-2.3,2.1-3.4,3.2-.1.1-.3.2-.4.2ZM57.6,227.6c-.1,0-.2,0-.3,0-1.3-.8-2.7-1.6-4-2.4-.3-.2-.4-.6-.2-.8.2-.3.6-.4.8-.2,1.3.8,2.6,1.6,3.9,2.4.3.2.4.5.2.8-.1.2-.3.3-.5.3ZM227.3,227.1s0,0,0,0c-1.5-.2-3.1-.4-4.6-.6-.3,0-.6-.3-.5-.7,0-.3.3-.6.7-.5,1.5.2,3.1.4,4.6.6.3,0,.6.4.5.7,0,.3-.3.5-.6.5ZM159.3,226.6c-.3,0-.6-.2-.6-.5,0-.3.2-.6.5-.7,1.5-.2,3.1-.4,4.6-.5.3,0,.6.2.7.5,0,.3-.2.6-.5.7-1.5.2-3.1.3-4.6.5,0,0,0,0,0,0ZM218.2,226s0,0,0,0c-1.5-.2-3.1-.3-4.6-.4-.3,0-.6-.3-.5-.7,0-.3.3-.6.7-.5,1.5.1,3.1.3,4.6.4.3,0,.6.3.5.7,0,.3-.3.5-.6.5ZM168.3,225.7c-.3,0-.6-.2-.6-.5,0-.3.2-.6.5-.7,1.5-.1,3.1-.3,4.6-.4.3,0,.6.2.6.6,0,.3-.2.6-.6.6-1.5.1-3.1.2-4.6.4,0,0,0,0,0,0ZM209.2,225.2s0,0,0,0c-1.5-.1-3.1-.2-4.6-.3-.3,0-.6-.3-.6-.6,0-.3.3-.6.6-.6,1.5,0,3.1.2,4.6.3.3,0,.6.3.6.6,0,.3-.3.6-.6.6ZM177.3,225c-.3,0-.6-.2-.6-.6,0-.3.2-.6.6-.6,1.5,0,3.1-.2,4.6-.2.3,0,.6.2.6.6,0,.3-.2.6-.6.6-1.5,0-3.1.1-4.6.2,0,0,0,0,0,0ZM200.1,224.7s0,0,0,0c-1.5,0-3.1,0-4.6-.1-.3,0-.6-.3-.6-.6,0-.3.3-.6.6-.6h0c1.5,0,3.1,0,4.7.1.3,0,.6.3.6.6,0,.3-.3.6-.6.6ZM186.4,224.7c-.3,0-.6-.3-.6-.6,0-.3.3-.6.6-.6,1.5,0,3.1,0,4.6,0h0c.3,0,.6.3.6.6,0,.3-.3.6-.6.6-1.5,0-3.1,0-4.6,0,0,0,0,0,0,0ZM50,222.7c-.1,0-.2,0-.4-.1-1.3-.9-2.5-1.9-3.7-2.9-.3-.2-.3-.6,0-.8.2-.3.6-.3.8,0,1.2,1,2.4,1.9,3.7,2.8.3.2.3.6.1.8-.1.2-.3.2-.5.2ZM445.7,221.4c-.1,0-.3,0-.4-.2-.2-.2-.3-.6,0-.9l.2-.2c1-1.1,2.1-2.3,3.1-3.4.2-.2.6-.3.9,0,.2.2.3.6,0,.9-1,1.1-2.1,2.3-3.1,3.5l-.2.2c-.1.1-.3.2-.4.2ZM42.9,217c-.1,0-.3,0-.4-.2-1.1-1-2.3-2.1-3.4-3.2-.2-.2-.2-.6,0-.9.2-.2.6-.2.9,0,1.1,1.1,2.2,2.2,3.3,3.2.2.2.3.6,0,.9-.1.1-.3.2-.4.2ZM451.9,214.4c-.1,0-.3,0-.4-.1-.3-.2-.3-.6,0-.9,1-1.2,2-2.4,3-3.5.2-.3.6-.3.8,0,.3.2.3.6,0,.8-1,1.2-2,2.4-3,3.6-.1.1-.3.2-.5.2ZM36.5,210.5c-.2,0-.3,0-.5-.2-1-1.2-2-2.4-3-3.6-.2-.3-.2-.6,0-.8.3-.2.6-.2.8,0,1,1.2,1.9,2.4,3,3.5.2.2.2.6,0,.9-.1.1-.3.2-.4.2ZM457.7,207.4c-.1,0-.3,0-.4-.1-.3-.2-.3-.6,0-.8,1-1.2,1.9-2.4,2.8-3.7.2-.3.6-.3.8-.1.3.2.3.6.1.8-.9,1.2-1.9,2.5-2.9,3.7-.1.1-.3.2-.5.2ZM30.9,203.4c-.2,0-.4,0-.5-.3-.9-1.3-1.8-2.6-2.6-3.9-.2-.3,0-.7.2-.8.3-.2.7,0,.8.2.8,1.3,1.7,2.6,2.6,3.8.2.3.1.6-.1.8-.1,0-.2.1-.3.1ZM463.2,200.2c-.1,0-.2,0-.4-.1-.3-.2-.3-.6-.1-.8.9-1.3,1.8-2.5,2.7-3.8.2-.3.6-.3.8-.1.3.2.3.6.1.8-.9,1.3-1.8,2.5-2.7,3.8-.1.2-.3.2-.5.2ZM26,195.8c-.2,0-.4-.1-.5-.3-.8-1.4-1.5-2.7-2.2-4.1-.1-.3,0-.7.3-.8.3-.1.7,0,.8.3.7,1.4,1.4,2.7,2.1,4.1.2.3,0,.7-.2.8,0,0-.2,0-.3,0ZM468.5,192.8c-.1,0-.2,0-.3-.1-.3-.2-.4-.6-.2-.8.9-1.3,1.7-2.6,2.5-3.9.2-.3.6-.4.8-.2.3.2.4.6.2.8-.8,1.3-1.7,2.6-2.5,3.9-.1.2-.3.3-.5.3ZM22,187.6c-.2,0-.5-.1-.6-.4-.6-1.4-1.2-2.9-1.7-4.3-.1-.3,0-.7.4-.8.3-.1.7,0,.8.4.5,1.4,1.1,2.9,1.7,4.3.1.3,0,.7-.3.8,0,0-.2,0-.2,0ZM473.3,185.1c-.1,0-.2,0-.3,0-.3-.2-.4-.5-.2-.8.8-1.3,1.6-2.7,2.3-4,.2-.3.5-.4.8-.2.3.2.4.5.2.8-.8,1.3-1.5,2.7-2.3,4-.1.2-.3.3-.5.3ZM18.9,179.1c-.3,0-.5-.2-.6-.4-.5-1.5-.9-3-1.3-4.5,0-.3.1-.7.4-.7.3,0,.7.1.7.4.4,1.5.8,3,1.3,4.4,0,.3,0,.7-.4.8,0,0-.1,0-.2,0ZM477.8,177.2c0,0-.2,0-.3,0-.3-.2-.4-.5-.2-.8.7-1.4,1.4-2.8,2.1-4.1.1-.3.5-.4.8-.3.3.1.4.5.3.8-.7,1.4-1.4,2.8-2.1,4.1-.1.2-.3.3-.5.3ZM16.6,170.3c-.3,0-.5-.2-.6-.5-.3-1.5-.6-3.1-.8-4.6,0-.3.2-.6.5-.7.3,0,.6.2.7.5.2,1.5.5,3,.8,4.5,0,.3-.1.6-.5.7,0,0,0,0-.1,0ZM481.8,169c0,0-.2,0-.3,0-.3-.1-.4-.5-.3-.8.6-1.4,1.3-2.8,1.9-4.2.1-.3.5-.5.8-.3.3.1.5.5.3.8-.6,1.4-1.2,2.9-1.9,4.3-.1.2-.3.4-.5.4ZM15.2,161.4c-.3,0-.6-.2-.6-.5-.2-1.5-.3-3.1-.4-4.7,0-.3.2-.6.6-.6.3,0,.6.2.6.6,0,1.5.2,3.1.3,4.6,0,.3-.2.6-.5.7,0,0,0,0,0,0ZM485.4,160.6c0,0-.1,0-.2,0-.3-.1-.5-.5-.3-.8.6-1.4,1.1-2.9,1.6-4.3.1-.3.5-.5.8-.4.3.1.5.5.4.8-.5,1.5-1,2.9-1.6,4.4,0,.2-.3.4-.6.4ZM14.8,152.3c-.3,0-.6-.3-.6-.6v-.3c0-1.4,0-2.9,0-4.3,0-.3.3-.6.6-.6.3,0,.6.3.6.6,0,1.4,0,2.9,0,4.3v.3c0,.3-.3.6-.6.6h0ZM488.3,152c0,0-.1,0-.2,0-.3,0-.5-.4-.4-.8.4-1.5.9-3,1.2-4.4,0-.3.4-.5.7-.4.3,0,.5.4.4.7-.4,1.5-.8,3-1.3,4.5,0,.3-.3.4-.6.4ZM490.6,143.3s0,0-.1,0c-.3,0-.5-.4-.5-.7.3-1.5.6-3,.9-4.5,0-.3.4-.5.7-.5.3,0,.5.4.5.7-.3,1.5-.6,3.1-.9,4.6,0,.3-.3.5-.6.5ZM15.2,143.2s0,0,0,0c-.3,0-.6-.3-.5-.7.1-1.5.3-3.1.5-4.6,0-.3.4-.6.7-.5.3,0,.6.4.5.7-.2,1.5-.4,3.1-.5,4.6,0,.3-.3.5-.6.5ZM492.1,134.3s0,0,0,0c-.3,0-.6-.3-.5-.7.2-1.5.4-3.1.5-4.6,0-.3.3-.6.7-.6.3,0,.6.3.6.7-.1,1.5-.3,3.1-.5,4.6,0,.3-.3.5-.6.5ZM16.4,134.2s0,0-.1,0c-.3,0-.5-.4-.5-.7.3-1.5.6-3.1.9-4.6,0-.3.4-.5.7-.5.3,0,.5.4.5.7-.3,1.5-.7,3-.9,4.5,0,.3-.3.5-.6.5ZM18.4,125.4c0,0-.1,0-.2,0-.3,0-.5-.4-.4-.7.4-1.5.8-3,1.3-4.5.1-.3.4-.5.8-.4.3.1.5.4.4.8-.5,1.5-.9,3-1.3,4.4,0,.3-.3.4-.6.4ZM492.9,125.3s0,0,0,0c-.3,0-.6-.3-.6-.6,0-1.3,0-2.5,0-3.8s0-.5,0-.8c0-.3.3-.6.6-.6h0c.3,0,.6.3.6.6,0,.3,0,.5,0,.8,0,1.3,0,2.6,0,3.9,0,.3-.3.6-.6.6ZM21.1,116.7c0,0-.1,0-.2,0-.3-.1-.5-.5-.4-.8.5-1.4,1.1-2.9,1.7-4.4.1-.3.5-.5.8-.3.3.1.5.5.3.8-.6,1.4-1.1,2.9-1.6,4.3,0,.2-.3.4-.6.4ZM492.8,116.2c-.3,0-.6-.2-.6-.6,0-.9-.1-1.9-.2-2.8,0-.5,0-.9-.1-1.4,0-.1,0-.3,0-.4,0-.3.2-.6.5-.7.3,0,.6.2.7.5,0,.1,0,.3,0,.4,0,.5,0,1,.1,1.4,0,.9.1,1.9.2,2.8,0,.3-.2.6-.6.6,0,0,0,0,0,0ZM24.5,108.3c0,0-.2,0-.2,0-.3-.1-.4-.5-.3-.8.6-1.4,1.3-2.9,2-4.2.1-.3.5-.4.8-.3.3.1.4.5.3.8-.7,1.4-1.3,2.8-2,4.2-.1.2-.3.4-.6.4ZM491.8,107.2c-.3,0-.5-.2-.6-.5-.3-1.5-.7-3-1.1-4.5,0-.3,0-.7.4-.7.3,0,.7,0,.7.4.4,1.5.8,3.1,1.1,4.6,0,.3-.1.6-.5.7,0,0,0,0-.1,0ZM28.6,100.2c0,0-.2,0-.3,0-.3-.2-.4-.5-.2-.8.8-1.4,1.5-2.7,2.4-4,.2-.3.5-.4.8-.2.3.2.4.5.2.8-.8,1.3-1.6,2.6-2.3,4-.1.2-.3.3-.5.3ZM489.3,98.5c-.2,0-.5-.1-.6-.4-.5-1.4-1.1-2.8-1.8-4.2-.1-.3,0-.7.3-.8.3-.1.7,0,.8.3.7,1.4,1.3,2.9,1.8,4.3.1.3,0,.7-.4.8,0,0-.1,0-.2,0ZM33.3,92.5c-.1,0-.2,0-.3-.1-.3-.2-.3-.6-.2-.8.9-1.3,1.8-2.6,2.7-3.8.2-.3.6-.3.8-.1.3.2.3.6.1.8-.9,1.2-1.8,2.4-2.7,3.7-.1.2-.3.3-.5.3ZM485.5,90.2c-.2,0-.4-.1-.5-.3-.7-1.3-1.5-2.7-2.3-4-.2-.3,0-.7.2-.8.3-.2.7,0,.8.2.8,1.3,1.6,2.7,2.4,4,.2.3,0,.7-.2.8,0,0-.2,0-.3,0ZM249.1,87.1c-1,0-2,0-3.1,0-.3,0-.6-.3-.6-.6,0-.3.3-.6.6-.6,1.6,0,3.1,0,4.6,0,.3,0,.6.3.6.6,0,.3-.3.6-.6.6-.5,0-1.1,0-1.6,0ZM255.1,86.9c-.3,0-.6-.2-.6-.6,0-.3.2-.6.6-.7,1.5-.1,3.1-.3,4.6-.5.3,0,.6.2.7.5,0,.3-.2.6-.5.7-1.5.2-3.1.4-4.6.5,0,0,0,0,0,0ZM241.6,86.8s0,0,0,0c-1.5-.1-3.1-.3-4.6-.5-.3,0-.6-.3-.5-.7,0-.3.3-.6.7-.5,1.5.2,3.1.4,4.6.5.3,0,.6.3.5.7,0,.3-.3.6-.6.6ZM232.6,85.6s0,0-.1,0c-1.5-.3-3-.6-4.6-.9-.3,0-.5-.4-.5-.7,0-.3.4-.5.7-.5,1.5.3,3.1.6,4.5.9.3,0,.5.4.5.7,0,.3-.3.5-.6.5ZM264.1,85.5c-.3,0-.5-.2-.6-.5,0-.3.1-.6.5-.7,1.5-.3,3-.7,4.4-1.2.3,0,.7,0,.8.4,0,.3,0,.7-.4.8-1.5.5-3,.9-4.5,1.2,0,0,0,0-.1,0ZM38.9,85.3c-.1,0-.3,0-.4-.1-.3-.2-.3-.6,0-.9,1-1.2,2.1-2.3,3.2-3.4.2-.2.6-.2.9,0,.2.2.2.6,0,.9-1.1,1.1-2.1,2.2-3.1,3.4-.1.1-.3.2-.5.2ZM223.7,83.7s0,0-.1,0c-1.5-.4-3-.7-4.5-1.2-.3,0-.5-.4-.4-.7,0-.3.4-.5.7-.4,1.5.4,3,.8,4.5,1.2.3,0,.5.4.4.7,0,.3-.3.5-.6.5ZM272.7,82.9c-.2,0-.5-.1-.6-.4-.1-.3,0-.7.4-.8,1.4-.5,2.8-1.1,4.2-1.8.3-.1.7,0,.8.3.1.3,0,.7-.3.8-1.4.7-2.9,1.3-4.3,1.8,0,0-.1,0-.2,0ZM480.7,82.6c-.2,0-.4,0-.5-.3-.9-1.2-1.8-2.5-2.8-3.7-.2-.3-.2-.6,0-.8.3-.2.6-.2.8,0,1,1.2,1.9,2.5,2.8,3.7.2.3.1.6-.1.8-.1,0-.2.1-.4.1ZM215,81.4c0,0-.1,0-.2,0-1.5-.4-3-.9-4.5-1.3-.3,0-.5-.4-.4-.7,0-.3.4-.5.7-.4,1.5.4,3,.9,4.5,1.3.3,0,.5.4.4.7,0,.3-.3.4-.6.4ZM281,79.2c-.2,0-.4-.1-.5-.3-.2-.3,0-.7.3-.8,1.3-.7,2.6-1.4,4-2.2.3-.2.7,0,.8.2.2.3,0,.7-.2.8-1.4.8-2.7,1.6-4.1,2.3,0,0-.2,0-.3,0ZM206.2,78.9c0,0-.1,0-.2,0-1.5-.4-3-.9-4.5-1.3-.3,0-.5-.4-.4-.7,0-.3.4-.5.7-.4,1.5.4,3,.9,4.5,1.3.3,0,.5.4.4.7,0,.3-.3.4-.6.4ZM45.2,78.8c-.2,0-.3,0-.4-.2-.2-.2-.2-.6,0-.9,1.2-1,2.4-2.1,3.6-3,.3-.2.6-.2.8,0,.2.3.2.6,0,.8-1.2.9-2.4,1.9-3.5,3-.1.1-.3.2-.4.2ZM197.5,76.3c0,0-.1,0-.2,0-1.5-.4-3-.8-4.5-1.3-.3,0-.5-.4-.4-.7,0-.3.4-.5.7-.4,1.5.4,3,.8,4.5,1.3.3,0,.5.4.4.7,0,.3-.3.4-.6.4ZM475,75.5c-.2,0-.3,0-.4-.2-1-1.1-2.1-2.3-3.2-3.3-.2-.2-.2-.6,0-.9.2-.2.6-.2.9,0,1.1,1.1,2.2,2.3,3.2,3.4.2.2.2.6,0,.9-.1.1-.3.2-.4.2ZM288.8,74.6c-.2,0-.4-.1-.5-.3-.2-.3,0-.7.2-.8,1.2-.8,2.5-1.6,3.9-2.5.3-.2.7-.1.8.2.2.3.1.7-.2.8-1.4.9-2.7,1.8-3.9,2.5,0,0-.2,0-.3,0ZM188.8,73.9c0,0-.1,0-.2,0-1.5-.4-3-.8-4.5-1.2-.3,0-.5-.4-.4-.7,0-.3.4-.5.7-.4,1.5.4,3,.8,4.5,1.2.3,0,.5.4.4.7,0,.3-.3.4-.6.4ZM52.3,73.1c-.2,0-.4,0-.5-.3-.2-.3-.1-.6.2-.8,1.3-.9,2.6-1.7,3.9-2.5.3-.2.7,0,.8.2.2.3,0,.7-.2.8-1.3.8-2.6,1.6-3.9,2.5-.1,0-.2.1-.3.1ZM180,71.5c0,0-.1,0-.2,0-1.5-.4-3-.8-4.5-1.2-.3,0-.5-.4-.4-.7,0-.3.4-.5.7-.4,1.5.4,3,.8,4.5,1.2.3,0,.5.4.4.7,0,.3-.3.4-.6.4ZM296.4,69.7c-.2,0-.4,0-.5-.3-.2-.3-.1-.7.2-.8.7-.5,1.5-1,2.2-1.5l1.6-1.1c.3-.2.7-.1.8.2.2.3.1.7-.2.8l-1.6,1.1c-.8.5-1.5,1-2.2,1.5-.1,0-.2.1-.3.1ZM171.2,69.1s0,0-.2,0c-1.5-.4-3-.8-4.5-1.1-.3,0-.5-.4-.4-.7,0-.3.4-.5.7-.4,1.5.4,3,.7,4.5,1.1.3,0,.5.4.4.7,0,.3-.3.5-.6.5ZM468.6,69c-.1,0-.3,0-.4-.2-1.1-1-2.3-2-3.5-3-.3-.2-.3-.6,0-.9.2-.3.6-.3.9,0,1.2,1,2.4,2,3.5,3.1.2.2.3.6,0,.9-.1.1-.3.2-.4.2ZM60,68.4c-.2,0-.4-.1-.5-.3-.2-.3,0-.7.3-.8,1.4-.7,2.8-1.4,4.2-2,.3-.1.7,0,.8.3.1.3,0,.7-.3.8-1.4.6-2.8,1.3-4.1,2,0,0-.2,0-.3,0ZM162.4,66.9s0,0-.1,0c-1.5-.4-3.1-.7-4.5-1.1-.3,0-.5-.4-.5-.7,0-.3.4-.5.7-.5,1.5.3,3,.7,4.5,1.1.3,0,.5.4.4.7,0,.3-.3.5-.6.5ZM153.5,64.9s0,0-.1,0c-1.5-.3-3.1-.7-4.5-1-.3,0-.5-.4-.5-.7,0-.3.4-.5.7-.5,1.5.3,3,.6,4.5,1,.3,0,.5.4.5.7,0,.3-.3.5-.6.5ZM68.3,64.7c-.2,0-.5-.1-.6-.4-.1-.3,0-.7.4-.8,1.4-.5,2.9-1.1,4.4-1.5.3,0,.7,0,.8.4,0,.3,0,.7-.4.8-1.5.5-2.9,1-4.4,1.5,0,0-.1,0-.2,0ZM303.9,64.6c-.2,0-.4,0-.5-.3-.2-.3-.1-.7.2-.8,1.4-.9,2.7-1.8,3.9-2.5.3-.2.7,0,.8.2s0,.7-.2.8c-1.2.8-2.5,1.6-3.9,2.5-.1,0-.2.1-.3.1ZM461.6,63.2c-.1,0-.3,0-.4-.1-1.2-.9-2.5-1.8-3.7-2.7-.3-.2-.3-.6-.2-.8.2-.3.6-.3.8-.2,1.3.9,2.6,1.8,3.8,2.7.3.2.3.6.1.8-.1.2-.3.2-.5.2ZM144.6,63.1s0,0-.1,0c-1.5-.3-3.1-.6-4.6-.8-.3,0-.5-.4-.5-.7,0-.3.4-.5.7-.5,1.5.3,3,.5,4.6.8.3,0,.5.4.5.7,0,.3-.3.5-.6.5ZM77,62c-.3,0-.5-.2-.6-.5,0-.3.1-.7.4-.7,1.5-.4,3-.7,4.6-1,.3,0,.6.1.7.5,0,.3-.1.6-.5.7-1.5.3-3,.7-4.5,1,0,0-.1,0-.2,0ZM135.7,61.5s0,0,0,0c-1.5-.2-3.1-.5-4.6-.7-.3,0-.6-.4-.5-.7,0-.3.4-.6.7-.5,1.5.2,3.1.4,4.6.7.3,0,.6.4.5.7,0,.3-.3.5-.6.5ZM126.7,60.3s0,0,0,0c-1.6-.2-3.1-.4-4.6-.5-.3,0-.6-.3-.5-.7,0-.3.3-.6.7-.5,1.5.2,3.1.3,4.6.5.3,0,.6.3.5.7,0,.3-.3.5-.6.5ZM85.9,60.2c-.3,0-.5-.2-.6-.5,0-.3.2-.6.5-.7,1.5-.2,3.1-.4,4.6-.6.3,0,.6.2.7.5,0,.3-.2.6-.5.7-1.5.2-3.1.4-4.6.6,0,0,0,0,0,0ZM311.6,59.7c-.2,0-.4-.1-.5-.3-.2-.3,0-.7.2-.8,1.4-.8,2.7-1.6,4-2.4.3-.2.7,0,.8.2s0,.7-.2.8c-1.3.7-2.6,1.5-4,2.4,0,0-.2,0-.3,0ZM117.7,59.3s0,0,0,0c-1.6-.1-3.1-.2-4.6-.3-.3,0-.6-.3-.6-.6,0-.3.3-.6.6-.6,1.5,0,3.1.2,4.6.3.3,0,.6.3.6.6,0,.3-.3.6-.6.6ZM94.9,59.2c-.3,0-.6-.2-.6-.6,0-.3.2-.6.6-.6,1.5-.1,3.1-.2,4.7-.3.3,0,.6.2.6.6,0,.3-.2.6-.6.6-1.6,0-3.1.1-4.6.3,0,0,0,0,0,0ZM108.6,58.9s0,0,0,0c-1.6,0-3.1,0-4.6,0h0c-.3,0-.6-.3-.6-.6,0-.3.3-.6.6-.6,1.5,0,3.1,0,4.7,0,.3,0,.6.3.6.6,0,.3-.3.6-.6.6ZM454.2,58.1c-.1,0-.2,0-.3,0-1.3-.8-2.6-1.6-4-2.4-.3-.2-.4-.5-.2-.8.2-.3.5-.4.8-.2,1.3.8,2.7,1.6,4,2.4.3.2.4.6.2.8-.1.2-.3.3-.5.3ZM319.4,55.2c-.2,0-.4-.1-.5-.3-.2-.3,0-.7.2-.8,1.4-.7,2.8-1.5,4.1-2.1.3-.1.7,0,.8.3.1.3,0,.7-.3.8-1.4.7-2.7,1.4-4.1,2.1,0,0-.2,0-.3,0ZM446.3,53.5c0,0-.2,0-.3,0-1.4-.7-2.7-1.4-4.1-2.1-.3-.1-.4-.5-.3-.8.1-.3.5-.4.8-.3,1.4.7,2.8,1.4,4.2,2.1.3.2.4.5.3.8-.1.2-.3.3-.5.3ZM327.6,51.2c-.2,0-.5-.1-.6-.4-.1-.3,0-.7.3-.8,1.4-.6,2.9-1.2,4.3-1.8.3-.1.7,0,.8.3.1.3,0,.7-.3.8-1.4.6-2.8,1.2-4.2,1.8,0,0-.2,0-.2,0ZM438.1,49.6c0,0-.2,0-.2,0-1.4-.6-2.8-1.2-4.3-1.7-.3-.1-.5-.5-.3-.8s.5-.5.8-.3c1.4.6,2.9,1.1,4.3,1.8.3.1.4.5.3.8,0,.2-.3.4-.6.4ZM336,47.8c-.2,0-.5-.2-.6-.4-.1-.3,0-.7.4-.8,1.4-.5,2.9-1,4.4-1.5.3-.1.7,0,.8.4.1.3,0,.7-.4.8-1.5.5-2.9,1-4.4,1.5,0,0-.1,0-.2,0ZM429.6,46.4c0,0-.1,0-.2,0-1.4-.5-2.9-1-4.4-1.4-.3,0-.5-.4-.4-.8,0-.3.4-.5.8-.4,1.5.4,3,.9,4.4,1.4.3.1.5.5.4.8,0,.3-.3.4-.6.4ZM344.6,45c-.3,0-.5-.2-.6-.4,0-.3,0-.7.4-.7,1.5-.4,3-.8,4.5-1.2.3,0,.7.1.7.4,0,.3-.1.7-.4.7-1.5.4-3,.8-4.5,1.2,0,0-.1,0-.2,0ZM421,43.7c0,0-.1,0-.2,0-1.5-.4-3-.8-4.5-1.1-.3,0-.5-.4-.5-.7,0-.3.4-.5.7-.5,1.5.3,3,.7,4.5,1.1.3,0,.5.4.4.7,0,.3-.3.4-.6.4ZM353.4,42.8c-.3,0-.5-.2-.6-.5,0-.3.1-.6.5-.7,1.5-.3,3-.6,4.6-.9.3,0,.6.2.7.5,0,.3-.2.6-.5.7-1.5.3-3,.6-4.5.9,0,0,0,0-.1,0ZM412.1,41.7s0,0-.1,0c-1.5-.3-3-.6-4.6-.8-.3,0-.6-.4-.5-.7,0-.3.4-.6.7-.5,1.5.2,3.1.5,4.6.8.3,0,.5.4.5.7,0,.3-.3.5-.6.5ZM362.3,41.1c-.3,0-.6-.2-.6-.5,0-.3.2-.6.5-.7.3,0,.5,0,.8-.1,1.3-.2,2.6-.4,3.8-.5.3,0,.6.2.7.5,0,.3-.2.6-.5.7-1.3.2-2.5.3-3.8.5-.3,0-.5,0-.8.1,0,0,0,0,0,0ZM403.1,40.3s0,0,0,0c-1.5-.2-3.1-.3-4.6-.5-.3,0-.6-.3-.5-.7,0-.3.3-.6.7-.5,1.5.1,3.1.3,4.6.5.3,0,.6.3.5.7,0,.3-.3.5-.6.5ZM371.3,40c-.3,0-.6-.2-.6-.5,0-.3.2-.6.5-.7,1.5-.1,3.1-.3,4.6-.4.3,0,.6.2.6.6,0,.3-.2.6-.6.6-1.5.1-3.1.2-4.6.4,0,0,0,0,0,0ZM394.1,39.5s0,0,0,0c-1.5,0-3.1-.1-4.6-.2-.3,0-.6-.3-.6-.6,0-.3.3-.6.6-.6,1.6,0,3.1,0,4.7.2.3,0,.6.3.6.6,0,.3-.3.6-.6.6ZM380.4,39.4c-.3,0-.6-.3-.6-.6,0-.3.2-.6.6-.6,1.6,0,3.1,0,4.7-.1.3,0,.6.3.6.6,0,.3-.3.6-.6.6-1.5,0-3.1,0-4.6.1,0,0,0,0,0,0Z"/>
    <g>
      <ellipse class="st5" cx="73.6" cy="487.7" rx="59.9" ry="7.4"/>
      <g>
        <g>
          <path class="st16" d="M171.5,176.6c-4.3,5.7-9.1,11.1-14.5,16-5.4,4.9-11.5,9.2-17.9,12.9-2.7,1.5-5.8,1.3-8.2-.1l-.9-.6-35-21.1c-5.5-3.3-7.3-10.5-4-16,3.3-5.5,10.5-7.3,16-4,.4.2.8.6,1.2.8l28.2,22.3c3.7-1.9,7.3-4,10.8-6.5,5.1-3.6,9.8-7.7,14.2-12.4h0c2.6-2.7,6.8-2.8,9.5-.2,2.5,2.4,2.7,6.2.7,8.9Z"/>
          <g>
            <path class="st33" d="M176.6,170.6h0c0,0-.2,0-.3,0,0,0-.1.2-.3.5-1,1.6-4.3,6.1-8.1,4.6-.3-.1-.6-.2-.9-.4-.3-.2-.6-.3-.9-.5-3.4-2.1-4.7-5.6-4.7-5.6,0,0-.9-7.9,2.3-9.8,1.9-1.1,2.9-.8,3.5-.3.4.3.6.7.6.7,0,0,.2-.2.5-.6,1.7-2.1,7.5-9.2,8.9-9.3,1.7-.2-4.2,9.9-4.2,9.9,0,0,1.4-.4,4.3,2.5,2.8,2.8,3.9,7.2-.5,8.4Z"/>
            <path class="st35" d="M171.8,166.5c-.2,0-.4-.1-.4-.3,0-.2.1-.4.3-.5,0,0,1.2-.3,2.4-2.3.1-.2.4-.3.6-.1.2.1.3.4.1.6-1.4,2.4-2.9,2.7-2.9,2.7,0,0,0,0,0,0Z"/>
            <path class="st35" d="M173.6,169.2c-.2,0-.3-.1-.4-.3,0-.2,0-.4.3-.5,0,0,2-.6,2.9-2.5,0-.2.3-.3.5-.2.2,0,.3.3.2.5-1,2.2-3.3,2.9-3.4,2.9,0,0,0,0-.1,0Z"/>
            <path class="st35" d="M169.9,163.9c-.3.4-1,.6-1.8.6-1.9,0-4.5-.9-5.1-1.2-.2,0-.3-.3-.2-.5,0-.2.3-.3.5-.2,2.1.8,5.4,1.6,6,.8.2-.2,0-.8-.5-1.6l-1.7-2.7c.4.3.6.7.6.7,0,0,.2-.2.5-.6l1.3,2.2c.3.4,1.1,1.7.4,2.6Z"/>
            <path class="st35" d="M176.6,170.6c0,0-.2,0-.3,0,0,0-.1.2-.3.5-6.8-4-5-9.7-4.9-9.8,0-.2.3-.3.5-.3.2,0,.3.3.3.5,0,.2-1.6,5.3,4.8,8.9Z"/>
          </g>
        </g>
        <g>
          <polygon class="st19" points="77.9 326.6 68.9 462.8 83.7 461.9 115.7 292 80.8 293.2 77.9 326.6"/>
          <g>
            <path class="st33" d="M69.9,461.8l-1,13s4.5,2.6,11.3,1.4l2.1-15.3-12.4,1Z"/>
            <path class="st25" d="M85.6,459.1c.8,2.7.3,5.3-.6,7.9l-17.7-.8c-.6-2.6-.6-5.2-.2-7.8l18.5.7Z"/>
            <g>
              <path class="st18" d="M111,489.6c-1,2-43.1-.1-43.1-.1,0,0-1.3-12.5,0-16.4,1.3-3.9,7.5.5,11.7-.5,0,0,2.5-3.5,4.6-3.4.8,0,3.4,1.8,6.7,3.9.5.4,1.1.7,1.7,1.1.4.3.8.5,1.2.8.7.4,1.3.9,2,1.3.3.2.5.3.8.5h0c.6.4,1.2.8,1.8,1.2,3.7,2.3,7.2,4.3,9.2,4.6,5.4,1,4.4,5,3.5,7Z"/>
              <g>
                <path class="st13" d="M95.7,476.3c-.6,0-1.4,0-2.3.5-1.8.9-3.2,3.5-3.3,3.6,0,.2-.3.3-.4.4-.2,0-.4,0-.6,0-.4-.2-.5-.7-.3-1,0-.1,1.7-3,3.9-4.2.3-.2.7-.3,1-.4,1.1,0,2,.3,2,1.3Z"/>
                <path class="st13" d="M92.5,474.2c-.4,0-.9.2-1.4.4-1.8.9-3.2,3.5-3.3,3.6,0,.2-.3.3-.4.4-.2,0-.4,0-.6,0-.4-.2-.5-.7-.3-1,0-.1,1.7-3,3.9-4.2.1,0,.3-.1.4-.2.7,0,1.5,0,1.7,1.1Z"/>
                <path class="st13" d="M98.3,478c-.5,0-1.2.1-1.8.5-1.8.9-3.2,3.5-3.3,3.6,0,.2-.3.3-.4.4-.2,0-.4,0-.6,0-.4-.2-.5-.7-.3-1,0-.1,1.7-3,3.9-4.2.2-.1.5-.2.7-.3h0c1.2-.1,1.9.2,1.8,1.2Z"/>
              </g>
            </g>
          </g>
        </g>
        <g>
          <path class="st25" d="M35.4,463.3l13.2.6,33.8-79.8,6.9-86.4-30.9-4.7-1.7-.3-5.2-.8c2.3,18.5,5.5,83.7,5.5,83.7,0,0-5.6,13.5-10.2,29.5-4.5,16.1-11.4,58-11.4,58Z"/>
          <g>
            <path class="st33" d="M37.3,461.6l-3.8,13.2s4.5,2.6,11.3,1.4l3.8-15.4-11.3.9Z"/>
            <path class="st19" d="M52.2,460.2c.7,3.2.5,5.5-1.9,7.4l-18.5-1.1c-.6-2.6-.3-5.1.6-7.6l19.8,1.2Z"/>
            <g>
              <path class="st18" d="M74.8,489.6c-1,2-43.1-.1-43.1-.1,0,0-1.3-12.5,0-16.4,1.3-3.9,7.5.5,11.7-.5,0,0,2.5-3.5,4.6-3.4.8,0,3.4,1.8,6.7,3.9.5.4,1.1.7,1.7,1.1.4.3.8.5,1.2.8.7.4,1.3.9,2,1.3.3.2.5.3.8.5h0c.6.4,1.2.8,1.8,1.2,3.7,2.3,7.2,4.3,9.2,4.6,5.4,1,4.4,5,3.5,7Z"/>
              <g>
                <path class="st13" d="M59.5,476.3c-.6,0-1.4,0-2.3.5-1.8.9-3.2,3.5-3.3,3.6,0,.2-.3.3-.4.4-.2,0-.4,0-.6,0-.4-.2-.5-.7-.3-1,0-.1,1.7-3,3.9-4.2.3-.2.7-.3,1-.4,1.1,0,2,.3,2,1.3Z"/>
                <path class="st13" d="M56.3,474.2c-.4,0-.9.2-1.4.4-1.8.9-3.2,3.5-3.3,3.6,0,.2-.3.3-.4.4-.2,0-.4,0-.6,0-.4-.2-.5-.7-.3-1,0-.1,1.7-3,3.9-4.2.1,0,.3-.1.4-.2.7,0,1.5,0,1.7,1.1Z"/>
                <path class="st13" d="M62.1,478c-.5,0-1.2.1-1.8.5-1.8.9-3.2,3.5-3.3,3.6,0,.2-.3.3-.4.4-.2,0-.4,0-.6,0-.4-.2-.5-.7-.3-1,0-.1,1.7-3,3.9-4.2.2-.1.5-.2.7-.3h0c1.2-.1,1.9.2,1.8,1.2Z"/>
              </g>
            </g>
          </g>
        </g>
        <g>
          <path class="st18" d="M113.3,297.8c-6.6,3.4-49.9,2.8-59.5-2.8-3-1.7-4.4-12.7-4.8-27.5,0-.7,0-1.3,0-2,0-2.7,0-5.5,0-8.4v-.9c0-1.3,0-2.6,0-3.9,0-1.1,0-2.2,0-3.2,0-1.3,0-2.7,0-4,0-.2,0-.5,0-.7,0-.6,0-1.2,0-1.9,0-.5,0-1.1,0-1.6v-1.4c0-.4,0-.9,0-1.3,0-2.3.1-4.7.2-7,0-.7,0-1.4,0-2.1.1-3.6.3-7.1.5-10.5,0-.3,0-.6,0-.9,0-.8,0-1.7.1-2.5,0-.4,0-.7,0-1.1,0-.4,0-.8,0-1.2,0-.5,0-1,0-1.5,0-.4,0-.8,0-1.1,0-.4,0-.7,0-1.1,0-.9.1-1.8.2-2.7,0-.3,0-.6,0-.9,1-15.3,2.1-27.5,2.7-31,2-11.5,29.7-22.9,29.7-22.9l12.6,4.1c.7.2,1.5.5,2.2.8.4.2.9.4,1.3.6,8.8,4.4,14.1,13.9,13,23.9-.4,4.1-.6,8.5-.6,13.2,0,.8,0,1.5,0,2.3,0,2.2,0,4.5.1,6.7,0,.8,0,1.5,0,2.3,0,0,0,0,0,0,0,.4,0,.8,0,1.2,0,.4,0,.7,0,1.1,0,.4,0,.8,0,1.2,0,1.2,0,2.4.1,3.6,0,.4,0,.7,0,1.1,0,1,0,2,.1,2.9,0,.4,0,.7,0,1.1,0,1.7.1,3.3.2,4.9,0,.5,0,.9,0,1.4,0,.4,0,.8,0,1.3,0,.4,0,.9,0,1.3,0,2.2,0,4.3,0,6.1,0,.2,0,.4,0,.6,0,.6,0,1.2,0,1.8,0,2.4,0,5.1.2,7.9,0,.4,0,.8,0,1.1,0,.3,0,.7,0,1,0,.4,0,.7,0,1.1,0,.9.1,1.8.2,2.7,0,.5,0,.9.1,1.4,0,0,0,.1,0,.1,0,0,0,0,0,0,0,.3,0,.7,0,1,0,0,0,0,0,.1,0,.7.1,1.3.2,2,0,.3,0,.6,0,.9,0,.9.2,1.8.2,2.7.2,1.6.3,3.3.5,4.9,1.6,17,3.2,33.3-.9,35.5Z"/>
          <path class="st16" d="M99.7,276.7c-9,0-17-3.1-22.5-6-7.3-3.9-11.9-8.2-12-8.4-.3-.3-.3-.7,0-1,.3-.3.7-.3,1,0,0,0,4.6,4.4,11.8,8.2,6.6,3.5,16.8,7.2,28.1,5.3.4,0,.8.2.8.6,0,.4-.2.8-.6.8-2.2.4-4.5.6-6.6.6Z"/>
          <path class="st16" d="M86.9,182.2c-.3,0-.6-.2-.7-.5-.1-.4.1-.8.5-.9.1,0,10.9-3.1,16.2-13.2.2-.3.6-.5,1-.3.3.2.5.6.3,1-5.6,10.7-16.7,13.8-17.1,13.9,0,0-.1,0-.2,0Z"/>
          <path class="st16" d="M69.8,229.8c-.3,0-.5-.2-.6-.4-6.9-15.8,2.5-44.8,3-46.1.1-.4.5-.6.9-.5.4.1.6.5.5.9,0,.3-9.6,29.8-3,45.1.2.4,0,.8-.4.9,0,0-.2,0-.3,0Z"/>
          <path class="st16" d="M71.3,189.5c-.2,0-.5-.1-.6-.3-.2-.3-.1-.8.2-1l5.3-3.4c.3-.2.8-.1,1,.2.2.3.1.8-.2,1l-5.3,3.4c-.1,0-.2.1-.4.1Z"/>
          <path class="st16" d="M49,242.4c1.9,3.8,3.9,7.2,5.4,8.3.3.3,1,.8,5.5,1.2,4.2.4,11.6.7,25,.6,8.5,0,22.5-.5,28.3-.6,0,0,0,0,0-.1,0-.3,0-.7,0-1-21.3.6-55.3.8-57.8-1-1.6-1.2-4-5.5-6.2-10.2v3Z"/>
        </g>
        <g>
          <path class="st18" d="M53.4,171.8l-.3.7-.2.6-.4,1.1c-.3.7-.5,1.4-.8,2.2-.5,1.4-1,2.8-1.4,4.3-.9,2.9-1.7,5.7-2.4,8.6-1.4,5.8-2.4,11.8-2.9,17.9-.5,6.1-.4,12.4.6,18.8.5,3.2,1.2,6.4,2.2,9.6.5,1.6,1.1,3.2,1.7,4.7.7,1.6,1.4,3.1,2.2,4.6h0s.5.9.5.9c1.7,3,4.9,4.7,8.2,4.7,5.4,0,10.8,0,16.2-.1,5.4,0,10.8-.1,16.1-.2,10.8-.2,25.7-2.4,36.5-2.8,1.6-.2,1.9-1.2,1.7-4.6-.1-3.1-2.6-5.6-5.6-5.9h0c-10.6-1-21.2-2.3-31.7-3.6-5.3-.7-10.6-1.3-15.9-2-5.3-.7-10.6-1.4-15.8-2.1l8.7,5.7h0c-1.9-3.6-3.2-7.8-3.9-12.2-.7-4.4-.8-9.1-.4-13.9.4-4.8,1.2-9.7,2.3-14.5.6-2.4,1.3-4.8,2-7.2.4-1.2.8-2.4,1.2-3.5.2-.6.4-1.1.6-1.7l.3-.8.3-.7v-.3c2.4-5.5-.2-11.8-5.7-14-5.5-2.2-11.7.4-14,5.8Z"/>
          <path class="st16" d="M60.3,234.7c.2,0,.3,0,.5-.2,0,0,6.2-5.3,12-4.2.4,0,.8-.2.8-.6,0-.4-.2-.8-.6-.8-6.5-1.3-13,4.3-13.2,4.5-.3.3-.3.7,0,1,.1.2.3.2.5.2Z"/>
          <path class="st16" d="M67.3,230.8c.2,0,.4-.1.6-.3.2-.3.2-.8-.2-1-2.4-1.7-6.9-2.1-7.1-2.1-.4,0-.7.3-.8.7,0,.4.3.7.6.8,0,0,4.3.3,6.3,1.8.1,0,.3.1.4.1Z"/>
        </g>
        <g>
          <path class="st30" d="M113.3,125.2s4.3-.3,6.5-8c2.6-9.1-7.4-2.2-15-3-7.6-.9-18.8-.2-22.6,6.2-3.8,6.4-1.1,13.5-1.1,13.5l32.3-8.6Z"/>
          <g>
            <path class="st33" d="M84,155.7s-2-1.9-3-2.9c2.2-2.8,6.6-9.1,7.1-15.3l15.7,11.5s-.4.7-1.1,2c0,0,0,.1-.1.2,0,0,0,0,0,0-.5.9-1.1,1.9-1.9,3.1-.3.4-.5.9-.8,1.3-.3.4-.5.8-.8,1.2-1.4,2-3,4.2-4.6,6.1-3.5-1.5-10.4-7.2-10.4-7.2Z"/>
            <path class="st35" d="M102.7,150.9c0,0,0,.1-.1.2,0,0,0,0,0,0-.5.9-1.1,1.9-1.9,3.1-.3.4-.5.9-.8,1.3-.3.4-.5.8-.8,1.2-1.6-3.4-1.8-8.7-1.9-8.9l5.5,3Z"/>
          </g>
          <path class="st33" d="M83.2,137.5c1.5,1.7,3.6,3.6,6,5.5,7.4,5.9,17.5,12,20.4,12.4,2.2.4,3.7-.8,4.7-4.6.1-.6.3-1.2.4-1.8l.7-3.8c0-.5.1-.9.2-1.4,1.1-.2,3.4-.6,3-1.2-.4-.8-2.5-4.9-2.6-5.1h0s0,0,0,0c0-3-.1-5.8-.6-8.3-.2-.9-.5-1.7-.9-2.4-.9-1.6-2.3-2.8-4-3.5-5.2-2.1-15-5.6-20.4-4.8-7.6,1.2-13,12.1-6.9,19Z"/>
          <path class="st35" d="M113,148.2c0,0,.2,0,.2,0,.2,0,.4-.2.4-.4,0-.2-.2-.4-.4-.4-1.8,0-2.7-1.7-2.7-1.8,0-.2-.3-.3-.5-.2-.2,0-.3.3-.2.5,0,0,1,2.1,3.2,2.2Z"/>
          <path class="st35" d="M109.6,134.7c0,0-.2,0-.3,0-.3-.2-.4-.6-.2-.9.6-1.1,2.6-2.9,5.2-2.1.3.1.5.5.4.8-.1.3-.5.5-.8.4-2.3-.7-3.6,1.4-3.7,1.5-.1.2-.4.3-.6.3Z"/>
          <path class="st30" d="M90.1,118.5c5.4-.8,15.2,2.7,20.4,4.8,1.1.4,2.1,1.1,2.8,1.9-1.6-.1-3.3-.8-4.8-1.2-1.2,1.6-2.9,3-4.5,3,0,2-.4,3.9-.5,5.9-.5,0-1,.1-1.5,0,0,0-3.2-5.8-8-2.5-2.7,1.9-2.1,5.5,0,8.1-1.1,2.9-3.1,4.4-4.8,4.3-2.4-1.9-4.5-3.8-6-5.5-6.1-6.9-.7-17.8,6.9-19Z"/>
          <g>
            <path class="st13" d="M114,129.9c-1.5-.2-2.9,2.3-3.3,5.5-.4,3.3.5,6,2,6.1,1.4.2,2.8-2.1,3.2-5.2,0-.1,0-.2,0-.3,0,0,0-.2,0-.3.3-3.2-.6-5.7-2-5.9ZM112.8,141.1c-1-.1-1.8-2.4-1.5-5.5.3-3.1,1.7-5.2,2.6-5,1,.1,1.8,2.3,1.5,5.4,0,0,0,0,0,.1,0,.2,0,.4,0,.5-.4,2.8-1.6,4.6-2.6,4.5Z"/>
            <path class="st13" d="M116.5,136.6c-.1,0-.3,0-.4,0,0,0-.1-.1-.2-.2,0,0,0,0,0,0-.2,0-.3.1-.3.1,0,0-.1,0-.2,0,0-.2,0-.4,0-.5,0,0,0,0,0-.1.1,0,.3-.1.5,0,0,0,0,0,0,0,.2,0,.4.1.6.4,0,.1,0,.3,0,.4Z"/>
            <path class="st13" d="M111.1,134.7l-7.5-1c0,.2,0,.4,0,.6l7.4,1s0,0,0,0c.2,0,.3,0,.3-.2,0-.2,0-.3-.2-.3Z"/>
          </g>
        </g>
        <g>
          <rect class="st37" x="109.1" y="235.4" width="58.4" height="5.2"/>
          <polygon class="st37" points="182.3 188.8 162.9 238.9 167.5 240.6 187.5 188.8 182.3 188.8"/>
        </g>
        <g>
          <path class="st33" d="M143.5,242.5c-.5.4-1.2.9-2,1.5-3.2,2-9,4.6-15.3,3.1-6.3-1.5-9.7-6.3-9.7-6.3,0,0,.7-4,3.1-4.9,2.1-.8.6,2.5,1.2,3.5s8.1,1.4,12.5,1c2.5-.3,5-.3,7.1-.2.3,0,.6,0,.9,0,.5,0,1,0,1.5,0,.3,0,.5.1.7.2.2.1.3.3.4.5.2.5.2,1.1-.3,1.5Z"/>
          <path class="st35" d="M143.8,241c-.9.9-2.8,2.5-6.6,3.7,0,0,0,0,0,0-.1,0-.2,0-.3-.2,0-.2,0-.3.2-.4,3.7-1.2,5.7-2.8,6.4-3.6.2.1.3.3.4.5Z"/>
          <path class="st35" d="M141.2,240.2c-1.1.9-2.9,2.1-6,3.1,0,0,0,0,0,0-.1,0-.2,0-.3-.2,0-.2,0-.3.2-.4,2.5-.8,4.2-1.8,5.3-2.6.3,0,.6,0,.9,0Z"/>
        </g>
      </g>
    </g>
    <g>
      <ellipse class="st5" cx="310.9" cy="488.1" rx="202.4" ry="7.4"/>
      <g>
        <g>
          <path class="st13" d="M404.4,433.6h-26.3c-1,0-1.8-.8-1.8-1.8s.8-1.8,1.8-1.8h24.5v-160.6h-19.5c-1,0-1.8-.8-1.8-1.8s.8-1.8,1.8-1.8h21.3c1,0,1.8.8,1.8,1.8v164.3c0,1-.8,1.8-1.8,1.8Z"/>
          <path class="st27" d="M392.4,262.8h6.1v9.4h-6.1c-1.9,0-3.4-1.5-3.4-3.4v-2.7c0-1.9,1.5-3.4,3.4-3.4Z" transform="translate(787.5 535) rotate(180)"/>
          <path class="st27" d="M390.3,427.1h6.1v9.4h-6.1c-1.9,0-3.4-1.5-3.4-3.4v-2.7c0-1.9,1.5-3.4,3.4-3.4Z" transform="translate(783.3 863.6) rotate(180)"/>
        </g>
        <g>
          <path class="st13" d="M209.1,387.2h-20.5c-1,0-1.8-.8-1.8-1.8v-164.3c0-1,.8-1.8,1.8-1.8h16.6c1,0,1.8.8,1.8,1.8s-.8,1.8-1.8,1.8h-14.8v160.6h18.7c1,0,1.8.8,1.8,1.8s-.8,1.8-1.8,1.8Z"/>
          <path class="st27" d="M199.1,216h6.1v9.4h-6.1c-1.9,0-3.4-1.5-3.4-3.4v-2.7c0-1.9,1.5-3.4,3.4-3.4Z"/>
          <path class="st27" d="M203,380.6h6.1v9.4h-6.1c-1.9,0-3.4-1.5-3.4-3.4v-2.7c0-1.9,1.5-3.4,3.4-3.4Z"/>
        </g>
      </g>
      <g>
        <polygon class="st38" points="278.9 285.8 270.9 314.8 323.2 314.8 315.3 285.8 278.9 285.8"/>
        <path class="st37" d="M240.5,314.8h115.5c4.7,0,8.5,3.8,8.5,8.5v3.4h-132.6v-3.4c0-4.7,3.8-8.5,8.5-8.5Z"/>
        <rect class="st37" x="205.2" y="150.3" width="183.9" height="135.5" rx="5.2" ry="5.2"/>
        <g>
          <path class="st13" d="M380.6,161v99c0,1.5-1.2,2.7-2.7,2.7h-161.6c-1.5,0-2.7-1.2-2.7-2.7v-99c0-1.9,1.5-3.4,3.4-3.4h160.3c1.9,0,3.4,1.5,3.4,3.4Z"/>
          <g>
            <g>
              <rect class="st30" x="315.7" y="179.2" width="8.7" height="8.7"/>
              <rect class="st0" x="315.7" y="194.7" width="8.7" height="8.7"/>
              <g class="st32">
                <path class="st27" d="M361.9,196.6h-29c-1.5,0-2.7,1.1-2.7,2.5h0c0,1.4,1.2,2.5,2.7,2.5h29c1.5,0,2.7-1.1,2.7-2.5h0c0-1.4-1.2-2.5-2.7-2.5Z"/>
              </g>
              <g class="st32">
                <path class="st27" d="M361.9,181.1h-29c-1.5,0-2.7,1.1-2.7,2.5h0c0,1.4,1.2,2.5,2.7,2.5h29c1.5,0,2.7-1.1,2.7-2.5h0c0-1.4-1.2-2.5-2.7-2.5Z"/>
              </g>
            </g>
            <g>
              <g class="st32">
                <path class="st27" d="M315.8,247.3h0c0,1.4,1.1,2.5,2.5,2.5h43.6c1.4,0,2.5-1.1,2.5-2.5h0c0-1.4-1.1-2.5-2.5-2.5h-43.6c-1.4,0-2.5,1.1-2.5,2.5Z"/>
              </g>
              <g class="st32">
                <path class="st27" d="M315.8,237.4h0c0,1.4,1.1,2.5,2.5,2.5h43.6c1.4,0,2.5-1.1,2.5-2.5h0c0-1.4-1.1-2.5-2.5-2.5h-43.6c-1.4,0-2.5,1.1-2.5,2.5Z"/>
              </g>
              <g class="st32">
                <path class="st27" d="M315.7,227.5h0c0,1.4,1.1,2.5,2.5,2.5h43.6c1.4,0,2.5-1.1,2.5-2.5h0c0-1.4-1.1-2.5-2.5-2.5h-43.6c-1.4,0-2.5,1.1-2.5,2.5Z"/>
              </g>
              <g class="st32">
                <path class="st27" d="M315.7,217.7h0c0,1.4,1.1,2.5,2.5,2.5h43.6c1.4,0,2.5-1.1,2.5-2.5h0c0-1.4-1.1-2.5-2.5-2.5h-43.6c-1.4,0-2.5,1.1-2.5,2.5Z"/>
              </g>
            </g>
          </g>
          <g>
            <path class="st0" d="M297.3,217.2c0,17.9-14.5,32.5-32.5,32.5s-32.5-14.5-32.5-32.5.9-8.7,2.5-12.6l30,12.6-1.5-32.4c.5,0,1,0,1.5,0,17.9,0,32.5,14.5,32.5,32.5Z"/>
            <path class="st30" d="M260.4,179.7c-9.7.4-18.3,5.2-23.9,12.3-1.8,2.3-3.3,4.8-4.5,7.6l30,12.6-1.5-32.4Z"/>
          </g>
          <g>
            <path class="st30" d="M380.6,161v7.1h-167v-7.1c0-1.9,1.5-3.4,3.4-3.4h160.3c1.9,0,3.4,1.5,3.4,3.4Z"/>
            <g>
              <path class="st20" d="M361.2,162.9c0,1.3-1.1,2.4-2.4,2.4s-2.4-1.1-2.4-2.4,1.1-2.4,2.4-2.4,2.4,1.1,2.4,2.4Z"/>
              <circle class="st4" cx="366.5" cy="162.9" r="2.4"/>
              <circle class="st34" cx="373.9" cy="162.9" r="2.4"/>
            </g>
          </g>
        </g>
        <path class="st38" d="M304.1,274.5c0,3.9-3.1,7-7,7s-7-3.1-7-7,3.1-7,7-7,7,3.1,7,7Z"/>
      </g>
      <g>
        <rect class="st38" x="209.1" y="326.7" width="177.9" height="163.8" rx="7.4" ry="7.4"/>
        <g>
          <g>
            <path class="st37" d="M348.7,346h-122.1c-1.5,0-2.6-1.2-2.6-2.6h0c0-1.5,1.2-2.6,2.6-2.6h122.1c1.5,0,2.6,1.2,2.6,2.6h0c0,1.5-1.2,2.6-2.6,2.6Z"/>
            <path class="st37" d="M348.7,360h-122.1c-1.5,0-2.6-1.2-2.6-2.6h0c0-1.5,1.2-2.6,2.6-2.6h122.1c1.5,0,2.6,1.2,2.6,2.6h0c0,1.5-1.2,2.6-2.6,2.6Z"/>
            <path class="st37" d="M348.7,374h-122.1c-1.5,0-2.6-1.2-2.6-2.6h0c0-1.5,1.2-2.6,2.6-2.6h122.1c1.5,0,2.6,1.2,2.6,2.6h0c0,1.5-1.2,2.6-2.6,2.6Z"/>
            <path class="st37" d="M348.7,388h-122.1c-1.5,0-2.6-1.2-2.6-2.6h0c0-1.5,1.2-2.6,2.6-2.6h122.1c1.5,0,2.6,1.2,2.6,2.6h0c0,1.5-1.2,2.6-2.6,2.6Z"/>
            <path class="st37" d="M348.7,402h-122.1c-1.5,0-2.6-1.2-2.6-2.6h0c0-1.5,1.2-2.6,2.6-2.6h122.1c1.5,0,2.6,1.2,2.6,2.6h0c0,1.5-1.2,2.6-2.6,2.6Z"/>
            <path class="st37" d="M348.7,416h-122.1c-1.5,0-2.6-1.2-2.6-2.6h0c0-1.5,1.2-2.6,2.6-2.6h122.1c1.5,0,2.6,1.2,2.6,2.6h0c0,1.5-1.2,2.6-2.6,2.6Z"/>
          </g>
          <g>
            <path class="st37" d="M369.6,340.7h0c-1.4,0-2.5,1.1-2.5,2.5v.2c0,1.4,1.1,2.5,2.5,2.5h0c1.4,0,2.5-1.1,2.5-2.5v-.2c0-1.4-1.1-2.5-2.5-2.5Z"/>
            <path class="st37" d="M369.6,354.7h0c-1.4,0-2.5,1.1-2.5,2.5v.2c0,1.4,1.1,2.5,2.5,2.5h0c1.4,0,2.5-1.1,2.5-2.5v-.2c0-1.4-1.1-2.5-2.5-2.5Z"/>
            <path class="st37" d="M369.6,368.7h0c-1.4,0-2.5,1.1-2.5,2.5v.2c0,1.4,1.1,2.5,2.5,2.5h0c1.4,0,2.5-1.1,2.5-2.5v-.2c0-1.4-1.1-2.5-2.5-2.5Z"/>
            <path class="st37" d="M369.6,382.7h0c-1.4,0-2.5,1.1-2.5,2.5v.2c0,1.4,1.1,2.5,2.5,2.5h0c1.4,0,2.5-1.1,2.5-2.5v-.2c0-1.4-1.1-2.5-2.5-2.5Z"/>
            <path class="st37" d="M369.6,396.7h0c-1.4,0-2.5,1.1-2.5,2.5v.2c0,1.4,1.1,2.5,2.5,2.5h0c1.4,0,2.5-1.1,2.5-2.5v-.2c0-1.4-1.1-2.5-2.5-2.5Z"/>
            <path class="st37" d="M369.6,410.7h0c-1.4,0-2.5,1.1-2.5,2.5v.2c0,1.4,1.1,2.5,2.5,2.5h0c1.4,0,2.5-1.1,2.5-2.5v-.2c0-1.4-1.1-2.5-2.5-2.5Z"/>
          </g>
        </g>
        <g>
          <rect class="st37" x="223.9" y="430.2" width="148.1" height="50.4" rx="7.5" ry="7.5"/>
          <g>
            <path class="st38" d="M252.3,479.7c-13.4,0-24.3-10.9-24.3-24.3s10.9-24.3,24.3-24.3,24.3,10.9,24.3,24.3-10.9,24.3-24.3,24.3ZM252.3,439.4c-8.8,0-16,7.2-16,16s7.2,16,16,16,16-7.2,16-16-7.2-16-16-16Z"/>
            <path class="st38" d="M252.2,453.5c-1.1,0-1.9-.9-1.9-1.9v-8.5c0-1.1.9-1.9,1.9-1.9s1.9.9,1.9,1.9v8.5c0,1.1-.9,1.9-1.9,1.9Z"/>
            <path class="st38" d="M252.2,469.6c-1.1,0-1.9-.9-1.9-1.9v-8.5c0-1.1.9-1.9,1.9-1.9s1.9.9,1.9,1.9v8.5c0,1.1-.9,1.9-1.9,1.9Z"/>
            <path class="st38" d="M248.4,457.3h-8.5c-1.1,0-1.9-.9-1.9-1.9s.9-1.9,1.9-1.9h8.5c1.1,0,1.9.9,1.9,1.9s-.9,1.9-1.9,1.9Z"/>
            <path class="st38" d="M264.5,457.3h-8.5c-1.1,0-1.9-.9-1.9-1.9s.9-1.9,1.9-1.9h8.5c1.1,0,1.9.9,1.9,1.9s-.9,1.9-1.9,1.9Z"/>
          </g>
          <g>
            <path class="st38" d="M303.8,479.7c-13.4,0-24.3-10.9-24.3-24.3s10.9-24.3,24.3-24.3,24.3,10.9,24.3,24.3-10.9,24.3-24.3,24.3ZM303.8,439.4c-8.8,0-16,7.2-16,16s7.2,16,16,16,16-7.2,16-16-7.2-16-16-16Z"/>
            <path class="st38" d="M303.7,453.5c-1.1,0-1.9-.9-1.9-1.9v-8.5c0-1.1.9-1.9,1.9-1.9s1.9.9,1.9,1.9v8.5c0,1.1-.9,1.9-1.9,1.9Z"/>
            <path class="st38" d="M303.7,469.6c-1.1,0-1.9-.9-1.9-1.9v-8.5c0-1.1.9-1.9,1.9-1.9s1.9.9,1.9,1.9v8.5c0,1.1-.9,1.9-1.9,1.9Z"/>
            <path class="st38" d="M299.9,457.3h-8.5c-1.1,0-1.9-.9-1.9-1.9s.9-1.9,1.9-1.9h8.5c1.1,0,1.9.9,1.9,1.9s-.9,1.9-1.9,1.9Z"/>
            <path class="st38" d="M316,457.3h-8.5c-1.1,0-1.9-.9-1.9-1.9s.9-1.9,1.9-1.9h8.5c1.1,0,1.9.9,1.9,1.9s-.9,1.9-1.9,1.9Z"/>
          </g>
          <g>
            <rect class="st38" x="333.4" y="437.1" width="34.5" height="9.1" rx="1.8" ry="1.8"/>
            <path class="st38" d="M342,443.3c-.6,0-1.3-.1-1.9-.4-1.1-.5-2.3-.7-3.6-.7h-1.5c-.2,0-.4-.2-.4-.4s.2-.4.4-.4h1.5c1.4,0,2.7.3,3.9.8,1.4.6,3,.4,4.1-.7,1.8-1.7,4.5-1.7,6.3,0,0,0,0,0,0,0,1.4,1.4,3.7,1.4,5.1,0,1.4-1.4,3.6-1.7,5.3-.7.7.4,1.4.6,2.1.6h2.7c.2,0,.4.2.4.4s-.2.4-.4.4h-2.7c-.8,0-1.7-.2-2.5-.7-1.4-.8-3.2-.6-4.4.6-1.8,1.7-4.5,1.7-6.3,0,0,0,0,0,0,0-1.4-1.4-3.7-1.4-5.1,0-.9.8-2,1.3-3.1,1.3Z"/>
          </g>
          <g>
            <path class="st38" d="M355.2,475.7h-20.3c-.8,0-1.4-.6-1.4-1.4h0c0-.8.6-1.4,1.4-1.4h20.3c.8,0,1.4.6,1.4,1.4h0c0,.8-.6,1.4-1.4,1.4Z"/>
            <path class="st38" d="M355.2,468.3h-20.3c-.8,0-1.4-.6-1.4-1.4h0c0-.8.6-1.4,1.4-1.4h20.3c.8,0,1.4.6,1.4,1.4h0c0,.8-.6,1.4-1.4,1.4Z"/>
            <path class="st38" d="M355.2,460.8h-20.3c-.8,0-1.4-.6-1.4-1.4h0c0-.8.6-1.4,1.4-1.4h20.3c.8,0,1.4.6,1.4,1.4h0c0,.8-.6,1.4-1.4,1.4Z"/>
            <path class="st38" d="M355.2,453.4h-20.3c-.8,0-1.4-.6-1.4-1.4h0c0-.8.6-1.4,1.4-1.4h20.3c.8,0,1.4.6,1.4,1.4h0c0,.8-.6,1.4-1.4,1.4Z"/>
          </g>
          <g>
            <path class="st38" d="M364.5,472.8h0c-.8,0-1.4.6-1.4,1.4h0c0,.8.6,1.4,1.4,1.4h0c.8,0,1.4-.6,1.4-1.4h0c0-.8-.6-1.4-1.4-1.4Z"/>
            <path class="st38" d="M364.5,465.4h0c-.8,0-1.4.6-1.4,1.4h0c0,.8.6,1.4,1.4,1.4h0c.8,0,1.4-.6,1.4-1.4h0c0-.8-.6-1.4-1.4-1.4Z"/>
            <path class="st38" d="M364.5,458h0c-.8,0-1.4.6-1.4,1.4h0c0,.8.6,1.4,1.4,1.4h0c.8,0,1.4-.6,1.4-1.4h0c0-.8-.6-1.4-1.4-1.4Z"/>
            <path class="st38" d="M364.5,450.6h0c-.8,0-1.4.6-1.4,1.4h0c0,.8.6,1.4,1.4,1.4h0c.8,0,1.4-.6,1.4-1.4h0c0-.8-.6-1.4-1.4-1.4Z"/>
          </g>
        </g>
      </g>
      <g>
        <g>
          <path class="st38" d="M183.8,401.4v85.7c0,1.9-1.5,3.4-3.4,3.4h-49.7c-.9,0-1.8-.4-2.4-1-.6-.6-1-1.5-1-2.4v-85.7c0-1.9,1.5-3.4,3.4-3.4h49.7c.7,0,1.3.2,1.8.5.9.6,1.6,1.7,1.6,2.9Z"/>
          <g>
            <path class="st37" d="M168.3,414.5h-33.2c-1.3,0-2.3-1.1-2.3-2.3h0c0-1.3,1.1-2.3,2.3-2.3h33.2c1.3,0,2.3,1.1,2.3,2.3h0c0,1.3-1.1,2.3-2.3,2.3Z"/>
            <rect class="st37" x="132.8" y="420.5" width="37.9" height="4.7" rx="2.3" ry="2.3"/>
            <path class="st37" d="M168.3,435.9h-33.2c-1.3,0-2.3-1.1-2.3-2.3h0c0-1.3,1.1-2.3,2.3-2.3h33.2c1.3,0,2.3,1.1,2.3,2.3h0c0,1.3-1.1,2.3-2.3,2.3Z"/>
            <path class="st37" d="M168.3,446.6h-33.2c-1.3,0-2.3-1.1-2.3-2.3h0c0-1.3,1.1-2.3,2.3-2.3h33.2c1.3,0,2.3,1.1,2.3,2.3h0c0,1.3-1.1,2.3-2.3,2.3Z"/>
            <path class="st37" d="M168.3,457.3h-33.2c-1.3,0-2.3-1.1-2.3-2.3h0c0-1.3,1.1-2.3,2.3-2.3h33.2c1.3,0,2.3,1.1,2.3,2.3h0c0,1.3-1.1,2.3-2.3,2.3Z"/>
            <path class="st37" d="M168.3,468h-33.2c-1.3,0-2.3-1.1-2.3-2.3h0c0-1.3,1.1-2.3,2.3-2.3h33.2c1.3,0,2.3,1.1,2.3,2.3h0c0,1.3-1.1,2.3-2.3,2.3Z"/>
            <path class="st37" d="M168.3,478.7h-33.2c-1.3,0-2.3-1.1-2.3-2.3h0c0-1.3,1.1-2.3,2.3-2.3h33.2c1.3,0,2.3,1.1,2.3,2.3h0c0,1.3-1.1,2.3-2.3,2.3Z"/>
          </g>
          <g>
            <path class="st3" d="M177.4,410.8c0,.6-.5,1-1,1s-1-.5-1-1,.5-1,1-1,1,.5,1,1Z"/>
            <path class="st27" d="M177.4,413.5c0,.6-.5,1-1,1s-1-.5-1-1,.5-1,1-1,1,.5,1,1Z"/>
            <path class="st13" d="M177.4,421.5c0,.6-.5,1-1,1s-1-.5-1-1,.5-1,1-1,1,.5,1,1Z"/>
            <path class="st27" d="M177.4,424.2c0,.6-.5,1-1,1s-1-.5-1-1,.5-1,1-1,1,.5,1,1Z"/>
            <path class="st13" d="M177.4,442.9c0,.6-.5,1-1,1s-1-.5-1-1,.5-1,1-1,1,.5,1,1Z"/>
            <path class="st27" d="M177.4,445.6c0,.6-.5,1-1,1s-1-.5-1-1,.5-1,1-1,1,.5,1,1Z"/>
            <path class="st3" d="M177.4,432.2c0,.6-.5,1-1,1s-1-.5-1-1,.5-1,1-1,1,.5,1,1Z"/>
            <path class="st27" d="M177.4,434.9c0,.6-.5,1-1,1s-1-.5-1-1,.5-1,1-1,1,.5,1,1Z"/>
          </g>
          <g>
            <path class="st3" d="M177.4,453.6c0,.6-.5,1-1,1s-1-.5-1-1,.5-1,1-1,1,.5,1,1Z"/>
            <path class="st27" d="M177.4,456.3c0,.6-.5,1-1,1s-1-.5-1-1,.5-1,1-1,1,.5,1,1Z"/>
            <path class="st13" d="M177.4,464.3c0,.6-.5,1-1,1s-1-.5-1-1,.5-1,1-1,1,.5,1,1Z"/>
            <path class="st27" d="M177.4,467c0,.6-.5,1-1,1s-1-.5-1-1,.5-1,1-1,1,.5,1,1Z"/>
            <path class="st3" d="M177.4,475c0,.6-.5,1-1,1s-1-.5-1-1,.5-1,1-1,1,.5,1,1Z"/>
            <path class="st27" d="M177.4,477.6c0,.6-.5,1-1,1s-1-.5-1-1,.5-1,1-1,1,.5,1,1Z"/>
          </g>
        </g>
        <path class="st13" d="M155.5,395.9c-1,0-1.8-.8-1.8-1.8v-92.5c0-1,.8-1.8,1.8-1.8h33c1,0,1.8.8,1.8,1.8s-.8,1.8-1.8,1.8h-31.2v90.6c0,1-.8,1.8-1.8,1.8Z"/>
        <path class="st27" d="M173,397.9h-34.9c0-2.1,1.7-3.9,3.9-3.9h27.2c2.1,0,3.9,1.7,3.9,3.9h0Z"/>
        <path class="st27" d="M180.7,296.9h6.1v9.4h-6.1c-1.9,0-3.4-1.5-3.4-3.4v-2.7c0-1.9,1.5-3.4,3.4-3.4Z"/>
      </g>
      <g>
        <g>
          <path class="st13" d="M452.5,395.9c-1,0-1.8-.8-1.8-1.8v-19.2h-46.3c-1,0-1.8-.8-1.8-1.8s.8-1.8,1.8-1.8h48.1c1,0,1.8.8,1.8,1.8v21c0,1-.8,1.8-1.8,1.8Z"/>
          <path class="st27" d="M409.5,368.1h6.1v9.4h-6.1c-1.9,0-3.4-1.5-3.4-3.4v-2.7c0-1.9,1.5-3.4,3.4-3.4Z" transform="translate(821.8 745.6) rotate(180)"/>
          <path class="st27" d="M451.2,384.6h6.1v9.4h-6.1c-1.9,0-3.4-1.5-3.4-3.4v-2.7c0-1.9,1.5-3.4,3.4-3.4Z" transform="translate(841.9 -63.2) rotate(90)"/>
        </g>
        <g>
          <path class="st37" d="M430.4,394.1c-2.8,0-5,2.3-5,5v86.1c.1,1.4.7,2.6,1.6,3.5.9.9,2.2,1.5,3.5,1.5h43.7c2.8,0,5-2.3,5-5.1v-86.1c-.1-2.8-2.4-5-5.2-5h-43.6Z"/>
          <g>
            <path class="st38" d="M425.4,417.3h0c-1,0-1.8-.8-1.8-1.8v-7.9c0-1,.8-1.8,1.8-1.8h0v11.6Z"/>
            <path class="st38" d="M479,416.8h0c.8,0,1.5-.7,1.5-1.5v-6.5c0-.8-.7-1.5-1.5-1.5h0v9.4Z"/>
            <path class="st38" d="M425.4,430.5h0c-1,0-1.8-.8-1.8-1.8v-7.9c0-1,.8-1.8,1.8-1.8h0v11.6Z"/>
          </g>
          <path class="st13" d="M472.2,483.1h-32.3s0,0,0,0h-6.9c-.7,0-1.3-.3-1.7-.9,0-.1-.1-.2-.2-.3-.1-.2-.2-.5-.2-.8v-16.2s0-15.8,0-15.8v-19.1s0-10.1,0-10.1v-17.2c0-1.1.9-2,2-2h15.8s9.6,0,9.6,0h13.8c.3,0,.6,0,.8.2.6.3,1.1.9,1.2,1.6,0,0,0,.2,0,.2v15.8s0,17.4,0,17.4v10.3s0,34.8,0,34.8c0,1.1-.9,2-2,2Z"/>
          <path class="st10" d="M453.3,425.6c-9.8,0-17.7,7.9-17.7,17.7s7.9,17.7,17.7,17.7,17.7-7.9,17.7-17.7-7.9-17.7-17.7-17.7ZM454,449.8v-6.2h8c0,2.2-.4,4.3-.9,6.2h-7.1ZM459,456.9c1.3-1.7,2.3-3.5,3.1-5.6h5.4c-2.3,4.1-6.1,6.9-10.6,7.9.8-.7,1.5-1.4,2.1-2.3ZM460.6,451.2c-.7,1.7-1.6,3.3-2.6,4.7-1.7,2.2-3.4,3.3-3.9,3.6v-8.3s6.6,0,6.6,0ZM454,434.5v-7.5c.2,0,.4,0,.6,0,.9.8,3.7,3.3,5.6,7.5h-6.2ZM461.8,434.5c-.6-1.5-1.4-3-2.4-4.3-.7-1-1.4-1.9-2.2-2.8,4.1,1,7.6,3.5,9.9,7.1h-5.3ZM454,442.2v-6.2h6.8c.7,2,1.1,4.1,1.2,6.2h-8ZM463.4,442.2c0-2.1-.5-4.2-1.1-6.2h5.6c1,1.9,1.5,4,1.7,6.2h-6.1ZM469.6,443.6c0,2.2-.5,4.2-1.4,6.2h-5.7c.5-1.9.8-4,.9-6.2h6.1ZM444.2,449.8h-5.8c-.9-2-1.3-4-1.4-6.2h6.3c0,2.2.3,4.3.9,6.2ZM446.6,434.5c.5-1.2,1.2-2.4,2-3.5,1.5-2.1,3-3.5,3.6-4,.1,0,.3,0,.5,0v7.5h-6ZM452.6,436v6.2h-7.8c0-2.1.5-4.2,1.2-6.2h6.6ZM439.6,434.5c2.3-3.6,6-6.2,10.1-7.2-.8.9-1.6,1.8-2.3,2.8-.9,1.4-1.8,2.8-2.4,4.3h-5.5ZM452.6,443.6v6.2h-6.9c-.6-1.9-.9-4-.9-6.2h7.8ZM437.1,442.2c.1-2.2.7-4.3,1.7-6.2h5.7c-.7,2-1.1,4.1-1.1,6.2h-6.3ZM444.7,451.2c.7,2.1,1.8,4,3.1,5.6.7.9,1.4,1.6,2.2,2.3-4.5-1-8.5-3.9-10.8-8h5.6ZM452.6,451.2v8.2c-1.1-.7-4.4-3.1-6.4-8.2h6.4Z"/>
          <g>
            <path class="st37" d="M466.9,400.5l-2,3.1c-.6.9-1.5,1.4-2.6,1.4h-19.6c-1,0-2-.5-2.6-1.3l-2-3.1c0-.3.3-.6.6-.6h27.6c.3,0,.6.2.6.5Z"/>
            <path class="st24" d="M459.4,402.4h-16.8c-.3,0-.6-.3-.6-.6h0c0-.3.3-.6.6-.6h16.8c.3,0,.6.3.6.6h0c0,.3-.3.6-.6.6Z"/>
            <path class="st24" d="M463.3,401.6c0,.5-.4,1-.9.9-.3,0-.5-.3-.6-.6-.1-.5.4-1,.9-.9.3,0,.5.3.6.6Z"/>
          </g>
        </g>
      </g>
    </g>
    <path class="st28" d="M497.7,112.2l2.6-13.2-12.3-2.4c0-3.2-.6-6.5-1.6-9.6l10.2-6.8-7.5-11.1-9.7,6.5c-2.9-2.9-6.3-5.2-10-6.7l2.4-12.3-13.2-2.6-2.5,12.7c-2.7.2-5.4.7-8,1.6l-6.8-10.2-11.1,7.5,6.5,9.7c-2.9,2.9-5.2,6.3-6.7,10l-10.8-2.1-2.6,13.2,11.2,2.2c.2,3.4,1,6.9,2.4,10.1l-9.7,6.5,7.5,11.1,10.2-6.8c2.9,2.5,6.2,4.4,9.8,5.7l-2.4,12.4,13.2,2.6,2.6-13.4c2.9-.3,5.8-1.1,8.5-2.2l6.5,9.7,11.1-7.5-6.8-10.2c1.8-2.1,3.3-4.4,4.5-6.8l12.7,2.5ZM464.7,106.9c-5.6,3.8-13.3,2.3-17-3.3s-2.3-13.3,3.3-17c5.6-3.8,13.3-2.3,17,3.3,3.8,5.6,2.3,13.3-3.3,17Z"/>
    <path class="st28" d="M434.7,39.4l1.4-7-6.6-1.3c0-1.7-.3-3.5-.9-5.2l5.4-3.6-4-6-5.2,3.5c-1.5-1.6-3.4-2.8-5.3-3.6l1.3-6.6-7-1.4-1.3,6.8c-1.4,0-2.9.4-4.3.8l-3.6-5.4-6,4,3.5,5.2c-1.6,1.5-2.8,3.4-3.6,5.3l-5.8-1.1-1.4,7,6,1.2c.1,1.8.5,3.7,1.3,5.4l-5.2,3.5,4,6,5.4-3.6c1.6,1.4,3.3,2.4,5.2,3l-1.3,6.6,7,1.4,1.4-7.2c1.5-.2,3.1-.6,4.6-1.2l3.5,5.2,6-4-3.6-5.4c1-1.1,1.8-2.3,2.4-3.6l6.8,1.3ZM417,36.6c-3,2-7.1,1.2-9.1-1.8-2-3-1.2-7.1,1.8-9.1,3-2,7.1-1.2,9.1,1.8,2,3,1.2,7.1-1.8,9.1Z"/>
  </g>
</svg>